<svg xmlns="http://www.w3.org/2000/svg" aria-hidden="true" overflow="hidden" style="position:absolute;width:0;height:0">
  <defs>
    <symbol id="icon-instagram0" viewBox="0 0 32 32">
      <path d="M16 8.923a7.075 7.075 0 0 0-6.539 4.369 7.075 7.075 0 0 0 9.246 9.246 7.082 7.082 0 0 0 4.369-6.539 7.077 7.077 0 0 0-7.077-7.077zm0 12.308a5.228 5.228 0 0 1-4.833-3.229 5.225 5.225 0 0 1 1.134-5.7 5.228 5.228 0 0 1 8.047.793c.575.86.882 1.871.882 2.906-.004 1.386-.556 2.714-1.537 3.694s-2.308 1.532-3.694 1.537zM22.769.923H9.231A8.307 8.307 0 0 0 .924 9.23v13.538a8.307 8.307 0 0 0 8.307 8.307h13.538a8.307 8.307 0 0 0 8.307-8.307V9.23A8.307 8.307 0 0 0 22.769.923zm6.462 21.846a6.46 6.46 0 0 1-6.462 6.462H9.231a6.46 6.46 0 0 1-6.462-6.462V9.231a6.46 6.46 0 0 1 6.462-6.462h13.538a6.46 6.46 0 0 1 6.462 6.462v13.538zM25.538 8a1.54 1.54 0 0 1-2.626 1.089 1.535 1.535 0 0 1-.333-1.677 1.542 1.542 0 0 1 1.422-.949 1.538 1.538 0 0 1 1.539 1.539z"/>
    </symbol>
    <symbol id="icon-facebook0" viewBox="0 0 19 32">
      <path d="M17.64 1.245a41.42 41.42 0 0 0-4.468-.23c-4.948 0-8.023 3.151-8.023 8.224v3.444H.993a.735.735 0 0 0-.735.735v5.664a.733.733 0 0 0 .735.735h4.156v11.358a.735.735 0 0 0 .735.735h5.853a.735.735 0 0 0 .736-.735V19.817h4.143a.733.733 0 0 0 .729-.64l.731-5.664a.724.724 0 0 0-.177-.581.725.725 0 0 0-.554-.25h-4.874V9.8c0-1.427.287-2.023 2.072-2.023h3a.735.735 0 0 0 .735-.735V1.973a.733.733 0 0 0-.64-.729zm-.831 5.061-2.266.001c-3.174 0-3.541 1.995-3.541 3.494v3.619a.735.735 0 0 0 .734.736h4.776l-.543 4.193h-4.231a.733.733 0 0 0-.735.735v11.355H6.622V19.084a.735.735 0 0 0-.735-.735H1.732v-4.193h4.155a.735.735 0 0 0 .735-.735V9.24c0-4.228 2.45-6.753 6.552-6.753 1.484 0 2.825.081 3.637.152v3.668z"/>
    </symbol>
    <symbol id="icon-telephone" viewBox="0 0 28 32">
      <path d="m25.655 22.957-.173-.216c-1.372-1.735-2.519-2.637-3.503-2.756-.851-.116-1.673.472-2.548 1.077l-.935.584a2.054 2.054 0 0 1-.327.132c-.547.155-1.927.245-2.708-.469-.909-.832-2.32-2.355-3.417-3.685-1.048-1.377-2.2-3.095-2.801-4.176-.508-.916-.083-2.197.201-2.672.056-.093.129-.185.211-.276l.824-.761c.012-.012.017-.027.028-.037.008-.008.021-.005.031-.012.744-.628 1.513-1.275 1.619-2.105.124-.976-.483-2.296-1.857-4.029l-.168-.216C9.281 2.249 7.995.6 6.147.872c-.727.108-1.376.356-2.045.776-.007.004-.011.012-.016.016s-.012.004-.017.008l-.932.691c-.009.005-.015.017-.024.025-.007.007-.017.008-.025.015a13.74 13.74 0 0 0-.323.28c-.945.843-2.992 3.289-1.596 7.815.901 2.923 2.76 6.333 5.388 9.883l-.025.021 1.449 1.805.012-.009c2.849 3.371 5.749 5.976 8.407 7.553 1.773 1.053 3.323 1.401 4.597 1.401 1.677 0 2.879-.603 3.481-.995l.379-.253c.043-.029.073-.071.104-.108l.825-.621c.009-.008.015-.019.024-.027.004-.004.011-.003.016-.007.587-.536.993-1.097 1.276-1.763.732-1.705-.579-3.339-1.445-4.42zm.465 4.002c-.22.517-.541.957-1.005 1.384l-1.228.924c-1.112.723-3.489 1.616-6.943-.435-2.657-1.577-5.583-4.244-8.461-7.712l-.779-.984c-2.711-3.595-4.617-7.037-5.517-9.955-1.169-3.793.304-5.828 1.291-6.707.1-.091.2-.175.299-.259l.004-.004.895-.663a4.067 4.067 0 0 1 1.628-.624c1.239-.187 2.247 1.12 2.987 2.069l.173.22C11 6.15 11.148 7.072 11.1 7.448c-.053.417-.688.952-1.248 1.423l-.079.067c-.003.003-.004.007-.007.009l-.012.007-.852.788c-.005.005-.008.012-.013.019s-.016.009-.021.016a3.007 3.007 0 0 0-.337.449c-.479.801-.931 2.457-.217 3.739.623 1.12 1.808 2.889 2.897 4.319 1.139 1.381 2.591 2.949 3.532 3.809.705.644 1.687.86 2.536.86.455 0 .872-.063 1.188-.152.167-.048.339-.117.516-.204.011-.005.016-.015.027-.021.005-.003.013-.001.019-.005l.989-.619c.032-.021.053-.049.08-.076l.012.013c.609-.423 1.304-.919 1.739-.847.385.047 1.26.417 2.799 2.36l.177.223c.749.935 1.776 2.215 1.297 3.333z"/>
    </symbol>
    <symbol id="icon-arrow" viewBox="0 0 36 32">
      <path d="M1.062 17.414a2 2 0 0 1 0-2.828L13.79 1.858a2 2 0 1 1 2.828 2.828L5.304 16l11.314 11.314a2 2 0 1 1-2.828 2.828L1.062 17.414zM36 18H2.476v-4H36v4z"/>
    </symbol>
    <symbol id="icon-equipment2" viewBox="0 0 31 32">
      <path d="M8.56 12.129H-.121a.472.472 0 0 0-.482.463v2.776c0 .256.216.463.482.463h.482v10.642c0 .256.216.463.482.463h6.752a.472.472 0 0 0 .482-.463V15.831h.482a.472.472 0 0 0 .482-.463v-2.776a.473.473 0 0 0-.482-.463zM3.255 20.92v-.925h2.894v-.925H3.255v-.925h3.858v6.015H3.255v-2.313h.965v-.925h-.965zm3.858-3.701h-4.34a.472.472 0 0 0-.482.463v6.94c0 .256.216.463.482.463h4.34v.925H1.326V15.831h5.787v1.388zm.965-2.314H.362v-1.851h7.716v1.851zm6.872-2.689V8.833a.48.48 0 0 0-.482-.476h-.482V5.975h.964v-.953H9.645v.953h3.376v2.382h-.482a.478.478 0 0 0-.482.476v3.383c-1.099.222-1.929 1.183-1.929 2.334v11.909a.48.48 0 0 0 .482.476h5.787a.478.478 0 0 0 .482-.476V14.55c0-1.15-.83-2.112-1.929-2.334zM13.021 9.31h.964v2.858h-.964V9.31zm-.482 3.811h1.929a1.44 1.44 0 0 1 1.447 1.429v.476h-4.823v-.476a1.44 1.44 0 0 1 1.447-1.429zm3.376 10.956h-4.823v-.953h1.929v-.953h-1.929v-6.193h4.823v8.098zm-4.823 1.906v-.953h4.823v.953h-4.823zm16.186-14.446H19.14a.46.46 0 0 0-.452.467v14.465a.46.46 0 0 0 .452.467h8.138a.46.46 0 0 0 .452-.467V12.004a.46.46 0 0 0-.452-.467zm-.452 14.465h-7.234V12.47h7.234v13.532z"/>
      <path d="M6.631 21.013H5.425v.592h1.206v-.592zm8.44 1.184h-1.206v1.185h1.206v-1.185zm-1.507-1.184c1.164 0 2.11-.93 2.11-2.073s-.946-2.073-2.11-2.073-2.11.93-2.11 2.073.946 2.073 2.11 2.073zm0-3.109c.582 0 1.055.465 1.055 1.036s-.473 1.036-1.055 1.036-1.055-.465-1.055-1.036.473-1.036 1.055-1.036zm8.515-1.629h2.261c.873 0 1.582-.664 1.582-1.481s-.71-1.481-1.582-1.481h-2.261c-.873 0-1.582.664-1.582 1.481s.71 1.481 1.582 1.481zm2.938-1.481c0 .35-.304.634-.678.634h-.678v-1.269h.678c.374 0 .678.285.678.635zm-2.938-.634h.678v1.269h-.678c-.374 0-.678-.285-.678-.634s.304-.635.678-.635zm0 6.853h2.261c.873 0 1.582-.797 1.582-1.777s-.71-1.777-1.582-1.777h-2.261c-.873 0-1.582.797-1.582 1.777s.71 1.777 1.582 1.777zm2.938-1.777c0 .42-.304.761-.678.761h-.678v-1.523h.678c.374 0 .678.342.678.761zm-2.938-.761h.678v1.523h-.678c-.374 0-.678-.342-.678-.761s.304-.761.678-.761zm0 6.684h2.261c.873 0 1.582-.797 1.582-1.777s-.71-1.777-1.582-1.777h-2.261c-.873 0-1.582.797-1.582 1.777s.71 1.777 1.582 1.777zm2.938-1.777c0 .42-.304.761-.678.761h-.678V22.62h.678c.374 0 .678.342.678.761zm-2.938-.761h.678v1.523h-.678c-.374 0-.678-.342-.678-.761s.304-.761.678-.761z"/>
    </symbol>
    <symbol id="icon-atom1" viewBox="0 0 32 32">
      <path d="M16.061 1.4c-1.05 0-2.031.478-2.867 1.261s-1.551 1.874-2.148 3.195c-.125.277-.244.564-.359.861a16.087 16.087 0 0 0-.927-.12 13.895 13.895 0 0 0-1.054-.066c-1.026-.024-1.964.08-2.786.329-1.096.332-2 .943-2.525 1.852s-.601 1.998-.341 3.113c.26 1.115.847 2.28 1.693 3.457.178.247.367.494.567.742-.196.242-.385.489-.566.741-.846 1.177-1.433 2.342-1.693 3.457s-.184 2.204.341 3.113c.525.909 1.429 1.52 2.525 1.852s2.398.407 3.841.263c.302-.03.611-.071.926-.12.112.291.231.579.359.863.596 1.321 1.312 2.412 2.148 3.195s1.817 1.261 2.867 1.261 2.031-.478 2.866-1.261 1.551-1.874 2.148-3.195c.128-.284.248-.572.359-.862.314.049.623.09.925.12 1.442.144 2.745.07 3.841-.263s2.001-.943 2.526-1.852c.525-.909.601-1.998.341-3.113s-.847-2.28-1.693-3.457c-.182-.252-.371-.5-.567-.741.196-.242.385-.489.567-.742.846-1.177 1.433-2.342 1.693-3.457s.184-2.204-.341-3.113c-.525-.909-1.429-1.52-2.525-1.852-.822-.249-1.76-.353-2.786-.329-.342.008-.694.03-1.055.066a16.8 16.8 0 0 0-.926.12c-.111-.29-.231-.577-.359-.861-.596-1.321-1.312-2.412-2.148-3.195s-1.817-1.261-2.866-1.261zm0 1.168c.7 0 1.387.308 2.068.946s1.331 1.603 1.882 2.823c.09.199.175.4.255.603a24.805 24.805 0 0 0-4.205 1.364 24.805 24.805 0 0 0-4.205-1.364c.083-.207.167-.409.255-.603.551-1.22 1.201-2.185 1.882-2.823s1.368-.946 2.068-.946zM8.337 7.696a12.707 12.707 0 0 1 1.309.062c.213.021.43.048.652.08a24.722 24.722 0 0 0-.921 4.324 24.81 24.81 0 0 0-3.284 2.96 13.294 13.294 0 0 1-.395-.524c-.781-1.087-1.292-2.133-1.504-3.041s-.135-1.657.215-2.264c.35-.607.96-1.047 1.853-1.318.586-.178 1.287-.273 2.077-.281zm15.448 0c.789.007 1.491.103 2.077.281.893.271 1.503.711 1.853 1.318s.427 1.355.215 2.264c-.212.909-.723 1.954-1.504 3.041-.128.177-.26.352-.395.524a24.81 24.81 0 0 0-3.284-2.96 24.72 24.72 0 0 0-.922-4.324c.221-.032.438-.059.651-.08a11.984 11.984 0 0 1 1.309-.062zm-3.12.353c.311.965.568 2.029.76 3.169a31.692 31.692 0 0 0-3.884-2.243 22.647 22.647 0 0 1 3.124-.926zm-9.208 0c.991.213 2.041.523 3.123.926a31.805 31.805 0 0 0-3.883 2.242 22.64 22.64 0 0 1 .76-3.168zm4.604 1.529c.95.419 1.915.906 2.877 1.462s1.867 1.147 2.705 1.761c.112 1.033.173 2.112.173 3.223s-.06 2.189-.172 3.222c-.838.614-1.743 1.205-2.705 1.761s-1.927 1.043-2.877 1.462c-.951-.419-1.916-.907-2.878-1.462s-1.866-1.147-2.704-1.76a29.94 29.94 0 0 1 0-6.446c.838-.614 1.743-1.205 2.705-1.761s1.926-1.043 2.877-1.462zm.079 1.757-3.344 2.064 3.344 2.064 3.344-2.064-3.344-2.064zm-6.923 2.446a31.648 31.648 0 0 0 0 4.484 22.675 22.675 0 0 1-2.364-2.242 22.675 22.675 0 0 1 2.364-2.242zm13.688 0c.89.736 1.683 1.49 2.363 2.242a22.76 22.76 0 0 1-2.363 2.242 31.611 31.611 0 0 0-.001-4.483zm-10.862.525v4.075l3.512 2.167v-4.075l-3.512-2.168zm8.191.002-3.511 2.167v4.073l3.511-2.167v-4.073zM6.091 16.923a24.74 24.74 0 0 0 3.284 2.96c.196 1.56.51 3.016.921 4.323-.221.032-.438.059-.65.08-1.331.133-2.493.053-3.386-.218s-1.502-.712-1.853-1.318c-.35-.607-.427-1.355-.215-2.264s.723-1.954 1.504-3.041c.128-.177.259-.352.395-.523zm19.939 0c.138.175.27.349.395.523.781 1.087 1.292 2.133 1.504 3.041s.135 1.657-.215 2.264c-.35.606-.96 1.047-1.853 1.318s-2.054.351-3.386.218a15.79 15.79 0 0 1-.65-.08c.412-1.308.725-2.764.921-4.324a24.794 24.794 0 0 0 3.283-2.959zm-4.605 3.905a22.655 22.655 0 0 1-.76 3.169 22.688 22.688 0 0 1-3.124-.926 32.057 32.057 0 0 0 3.884-2.242zm-10.727.001a32.168 32.168 0 0 0 3.883 2.242 22.635 22.635 0 0 1-3.123.926 22.503 22.503 0 0 1-.759-3.168zm5.398.053.043.026.042-.026h-.085zm-.035 2.861a24.725 24.725 0 0 0 4.206 1.364 14.57 14.57 0 0 1-.256.604c-.551 1.22-1.201 2.185-1.882 2.823s-1.368.946-2.068.946-1.387-.308-2.068-.946-1.331-1.603-1.882-2.823c-.09-.2-.175-.401-.256-.604a24.805 24.805 0 0 0 4.205-1.364z"/>
    </symbol>
    <symbol id="icon-krown3" viewBox="0 0 32 32">
      <path d="M29.687 10.326c-.253-.229-.559-.376-.883-.425s-.655.003-.954.15l-6.312 3.08a.215.215 0 0 1-.184.021.243.243 0 0 1-.142-.13l-3.688-7.287c-.15-.301-.37-.553-.638-.728s-.575-.268-.887-.268c-.312 0-.618.092-.887.268s-.489.427-.638.728l-3.687 7.287a.239.239 0 0 1-.142.13c-.03.01-.062.014-.094.01s-.062-.014-.09-.031l-6.313-3.08c-.298-.149-.628-.202-.953-.155s-.631.194-.883.423-.442.532-.546.873a2.112 2.112 0 0 0-.043 1.059l3.188 14.891c.054.252.154.489.293.697s.316.383.519.513a1.585 1.585 0 0 0 1.363.206 30.563 30.563 0 0 1 17.812-.014 1.602 1.602 0 0 0 1.367-.186 1.8 1.8 0 0 0 .524-.516c.141-.209.242-.447.297-.701l3.175-14.891c.079-.348.067-.713-.034-1.054s-.289-.643-.541-.871zm-.875 1.54-3.188 14.891a.321.321 0 0 1-.112.179.29.29 0 0 1-.2.028 31.912 31.912 0 0 0-18.625 0 .23.23 0 0 1-.197-.029.284.284 0 0 1-.116-.178L3.186 11.866a.324.324 0 0 1 .003-.124.288.288 0 0 1 .138-.189.235.235 0 0 1 .109-.03l.1.028 6.325 3.094c.399.198.851.222 1.266.069s.762-.472.972-.894l3.688-7.287a.26.26 0 0 1 .088-.106.22.22 0 0 1 .25 0 .248.248 0 0 1 .088.106L19.9 13.82c.21.422.557.742.972.894s.867.128 1.266-.069l6.325-3.094c.043-.021.09-.028.137-.021s.09.029.126.062c.037.032.064.075.08.124s.018.101.008.151zm-8.062 10.45c-.021.203-.109.391-.247.527s-.317.213-.503.215h-.075a35.646 35.646 0 0 0-7.85 0c-.197.023-.395-.041-.549-.177s-.254-.335-.276-.552c-.018-.218.043-.435.169-.605s.308-.278.506-.302a35.151 35.151 0 0 1 8.15 0c.196.024.375.131.501.297s.188.38.174.596z"/>
    </symbol>
    <symbol id="icon-star1big" viewBox="0 0 32 32">
      <path d="M6.693 0l10.657 10.184 14.322-3.491-10.184 10.658 3.491 14.322-10.657-10.184-14.322 3.491 10.184-10.657-3.491-14.322z"></path>
    </symbol>
    <symbol id="icon-star2mid" viewBox="0 0 32 32">
      <path d="M24.978 0l-3.491 14.321 10.184 10.657-14.321-3.491-10.658 10.184 3.491-14.321-10.183-10.658 14.321 3.491 10.657-10.183z"></path>
    </symbol>
    <symbol id="icon-star3small" viewBox="0 0 30 32">
      <path d="M8.964 1.136l8.156 9.994 12.812-1.482-9.996 8.152 1.484 12.812-8.154-9.994-12.812 1.484 9.994-8.154-1.484-12.812z"></path>
    </symbol>
    <symbol id="icon-close0" viewBox="0 0 32 32">
      <path stroke-linecap="round" stroke-width="2" d="m8 8 8 8 8-8M8 24l8-8 8 8"/>
    </symbol>
    <symbol id="icon-menu" viewBox="0 0 32 32">
      <path d="M29.333 24.007c0 0.733-0.595 1.327-1.327 1.327h-10.68c-0.733 0-1.327-0.594-1.327-1.327s0.594-1.327 1.327-1.327h10.68c0.733 0 1.327 0.593 1.327 1.327zM29.333 16c0 0.733-0.595 1.327-1.327 1.327h-24.013c-0.733 0-1.327-0.594-1.327-1.327s0.594-1.327 1.327-1.327h24.013c0.733 0 1.327 0.595 1.327 1.327zM28.007 9.32c0.733 0 1.327-0.594 1.327-1.327s-0.594-1.327-1.327-1.327h-16.013c-0.733 0-1.327 0.594-1.327 1.327s0.594 1.327 1.327 1.327h16.013z"></path>
    </symbol>
    <symbol id="icon-food" viewBox="0 0 48 32">
      <path d="M45.37 13.333c-0.052-1.992-2.005-3.973-5.918-5.333 0.267-0.547 0-0.726 0-1.333 0-2.356-2.048-4.667-4.603-4.667-0.576 0-0.778 0.473-1.315 0.667-0.86-0.97-2.435-1.333-3.945-1.333-0.684 0-1.354-0.232-1.973 0-1.076-0.891-2.414-1.333-3.945-1.333-2.063 0-4.235 1.21-5.26 2.667-2.426-0.265-4.432 0.263-5.26 2-2.034 0.036-3.69 1.536-3.945 3.333-4.239 1.378-6.52 3.252-6.575 5.333l-2.63 10v0.667c0 4.649 10.871 8 24.329 8s23.671-3.352 23.671-8l-2.63-10.667zM13.151 6c-0.034-0.002 0.034 0 0 0h0.658v-0.667c0.521-1.382 2.061-2 3.945-2 0.265 0 0.383-0.041 0.658 0h0.658c0.832-1.345 2.721-2.667 4.603-2.667 1.422 0 2.353 0.473 3.288 1.333l0.658 0.667v-0.667c0.578-0.252 1.308 0 1.973 0 1.378 0 2.617 0.424 3.288 1.333h0.658c0.52-0.227 0.747 0 1.315 0 2.090 0 3.945 1.449 3.945 3.333 0 0.618-0.308 0.805-0.658 1.333-0.001 0.001 0.001 0.665 0 0.667-0.027 0.040 0.028-0.039 0 0v0.667h0.658c1.651 0.228 2.63 1.13 2.63 2 0 0.523-0.316 0.431-0.658 0.667-0.055 0.038 0.048-0.029 0 0l-1.315 0.667 1.315 0.667c0.742 0.345 0.658 0.742 0.658 1.333 0 0.881-1.677 2-3.288 2-0.735 0.252-1.197 0.461-1.973 0.667-3.297 0.868-7.208 1.333-11.178 1.333-6.791 0-12.484-1.499-14.466-2-0.457-0.115-0.645 0.004-0.658 0-1.804 0-3.288-1.716-3.288-3.333s1.484-2.667 3.288-2.667c-0.109-0.010 0.113 0 0 0h0.658v-0.667c-0.212-0.39-0.658-0.908-0.658-1.333-0.002 0.025 0-0.025 0 0 0.168-1.438 1.617-2.667 3.288-2.667zM9.205 9.333c-0.003-0.018 0.002 0.018 0 0-0.004-0.028 0.004 0.028 0 0 0.025 0.147-0.044-0.143 0 0 0.001 0.002-0.001-0.002 0 0-2.144 0.129-3.945 1.996-3.945 4 0 2.069 2.361 3.971 4.603 4 0.103 0.029 0.304-0.089 0.658 0 2.025 0.512 7.59 2 14.466 2-0.001 0 0.001 0 0 0 4.966 0 9.224-0.664 13.151-2 1.944-0.027 4.603-1.159 4.603-2.667 0-0.185 0.048-0.49 0-0.667-0.143-0.529-0.799-0.962-1.315-1.333 0.512-0.46 0.658-0.755 0.658-1.333 0-0.041 0.003-0.625 0-0.667-0.002-0.035 0.004 0.033 0 0-0.005-0.040 0.008 0.039 0 0-0.008-0.038 0.010 0.038 0 0-0.002-0.009 0.002 0.009 0 0 1.58 0.945 2.63 1.619 2.63 2.667 0 3.18-8.721 6.667-21.041 6.667s-20.384-3.487-20.384-6.667c0-1.647 2.224-2.757 5.918-4zM23.671 31.333c-12.498 0-22.924-3.323-23.014-7.333l2.63-8.667c2.022 3.392 9.916 6 20.384 6s19.020-2.607 21.041-6l2.63 8.667c-0.090 4.010-11.173 7.333-23.671 7.333z"></path>
      <path d="M30.904 24c0-1.13-0.88-2-1.973-2-1.057 0-1.921 0.919-1.973 2h-6.575c-0.052-1.081-0.915-2-1.973-2-1.091 0-1.973 0.87-1.973 2 0 0.659 0.189 0.959 0.658 1.333-0.468 0.375-0.658 1.342-0.658 2 0 1.13 0.881 2 1.973 2 1.058 0 1.921-0.919 1.973-2h6.575c0.052 1.081 0.916 2 1.973 2 1.092 0 1.973-0.87 1.973-2 0-0.658-0.19-1.625-0.658-2 0.467-0.375 0.658-0.674 0.658-1.333zM30.247 27.333c0 0.658-0.679 1.333-1.315 1.333-0.635 0-1.315-0.675-1.315-1.333-0.016 0.079 0-0.079 0 0v-0.667h-7.89v0.667c0-0.079 0.016 0.079 0 0 0 0.658-0.679 1.333-1.315 1.333s-1.315-0.675-1.315-1.333c0-0.657 0.679-1.333 1.315-1.333v-0.667c-0.636 0-1.315-0.677-1.315-1.333 0-0.658 0.679-1.333 1.315-1.333s1.315 0.675 1.315 1.333c0 0.080 0.016-0.079 0 0v0.667h7.89v-0.667c-0.016-0.080 0 0.079 0 0 0-0.658 0.68-1.333 1.315-1.333 0.636 0 1.315 0.675 1.315 1.333 0 0.657-0.679 1.333-1.315 1.333v0.667c0.637-0.001 1.315 0.676 1.315 1.333z"></path>
    </symbol>
    <symbol id="icon-sled" viewBox="0 0 28 25" >
      <path d="M16.323 15.792c-2.716 0.52-2.978 2.843-5.12 5.316-3.1 3.61-1.975 6.125 0.372 6.27 2.28 0.181 3.833-2.366 6.255-2.651 2.412-0.435 4.666 1.474 6.84 0.543 2.107-0.896 2.378-3.613-1.768-6.067-2.786-1.625-3.787-3.816-6.579-3.411z"></path>
      <path d="M9.817 15.013c1.878 1.613 2.35 3.821 1.187 4.92s-3.716 0.642-5.528-1.006c-1.878-1.613-2.417-3.785-1.187-4.92s3.65-0.607 5.528 1.006z"></path>
      <path d="M22.939 12.993c-1.306 2.037-1.095 4.154 0.406 4.761s3.731-0.588 4.933-2.644c1.306-2.037 1.095-4.154-0.406-4.761s-3.731 0.588-4.933 2.644z"></path>
      <path d="M15.26 9.402c0.883 2.331 0.188 4.706-1.571 5.329s-3.958-0.843-4.841-3.174c-0.883-2.331-0.188-4.706 1.571-5.329s3.958 0.843 4.841 3.174z"></path>
      <path d="M15.848 8.926c-0.107 2.405 1.218 4.27 2.982 4.233s3.255-1.972 3.362-4.377c0.107-2.405-1.218-4.27-2.982-4.233s-3.255 1.972-3.362 4.377z"></path>
    </symbol>
    <symbol id="icon-arrow11" viewBox="0 0 41 32">
      <path d="M8.173 25.125c1.281-8.416 8.275-15.263 15.398-15.252 0.042 0.215 0.135 0.486 0.067 0.694-1.148 3.54 0.383 6.288 2.864 8.723 1.91 1.922 4.115 3.49 6.752 4.288 0.755 0.205 1.509 0.411 2.328 0.461 2.999 0.236 4.577-1.366 4.427-4.295-0.099-1.97-0.984-3.617-2.207-5.126-2.086-2.623-4.815-4.595-8.019-5.959-0.642-0.252-1.284-0.503-2.193-0.877 3.11-3.367 7.32-4.119 11.348-5.465-0.71-0.043-1.413-0.193-2.129-0.13-3.706 0.57-7.171 1.685-9.953 4.17-0.809 0.694-1.552 1.179-2.753 1.106-4.643-0.231-8.533 1.549-11.794 4.695-2.445 2.346-4.312 5.099-5.597 8.206-0.321 0.777-0.643 1.553-1.212 2.793-1.495-2.427-2.792-4.524-4.088-6.621-0.167 0.043-0.337 0.139-0.504 0.182-0.080 0.42-0.277 0.939-0.135 1.319 0.654 1.845 1.309 3.69 2.075 5.489 0.722 1.637 1.556 3.228 2.278 4.864 0.725 1.584 1.576 2.008 2.691 0.802 1.934-2.059 3.659-4.289 5.439-6.517 0.238-0.304 0.055-0.899 0.029-1.379-0.552 0.072-1.259-0.024-1.606 0.274-1.217 1.094-2.22 2.253-3.505 3.555zM25.815 9.903c5.295 1.226 9.295 3.913 11.689 8.678 0.484 1.038 0.844 2.335-0.188 3.068-0.687 0.489-2.004 0.515-2.926 0.352-3.516-0.746-6.129-2.817-8.264-5.549-1.47-1.948-1.838-3.988-0.312-6.549z"></path>
    </symbol>
    <symbol id="icon-sect3_1grooming" viewBox="0 0 32 30">
      <path d="M21.1 9.363c-0.085-0.371-0.316-0.65-0.633-0.765-0.023-0.008-0.047-0.009-0.070-0.016 0.228-1.036 0.87-4.801-1.234-7.004-1.219-1.277-3.121-1.782-5.651-1.504-0.046-0.019-0.097-0.030-0.149-0.031-1.987-0.064-3.508 0.484-4.504 1.626-1.953 2.238-1.246 6.013-1.042 6.908-0.030 0.008-0.061 0.010-0.090 0.020-0.318 0.115-0.549 0.394-0.633 0.765-0.076 0.331-0.033 0.712 0.118 1.075 0.278 0.665 0.841 1.090 1.381 1.090 0.058 0 0.115-0.005 0.172-0.015 0.458 1.357 1.223 2.486 2.487 3.179v1.392h-0.656v3.925h7.002v-3.925h-0.657v-1.383c1.266-0.692 2.031-1.824 2.489-3.187 0.056 0.010 0.113 0.014 0.17 0.014 0.54 0 1.103-0.425 1.381-1.089 0.151-0.363 0.194-0.745 0.118-1.075zM7.814 10.22c-0.105-0.251-0.137-0.518-0.088-0.732 0.039-0.169 0.125-0.289 0.236-0.33 0.030-0.011 0.063-0.016 0.098-0.016 0.063 0 0.133 0.018 0.205 0.051 0.074 0.599 0.179 1.18 0.326 1.731-0.247-0.005-0.594-0.269-0.776-0.705zM17.312 16.684c-0.643 0.629-1.84 1.052-3.215 1.052s-2.573-0.424-3.215-1.052h0.694c0.178 0 0.323-0.135 0.323-0.301v-1.392c0.63 0.241 1.362 0.392 2.215 0.432 0.839-0.040 1.56-0.188 2.182-0.425v1.385c0 0.166 0.145 0.301 0.323 0.301h0.694zM19.296 8.874c-0.021 0.185-0.043 0.37-0.069 0.547-0.067 0.453-0.153 0.88-0.258 1.284-0.040 0.152-0.084 0.299-0.13 0.444-0.396 1.263-1.020 2.247-1.984 2.876-0.142 0.093-0.296 0.174-0.454 0.251-0.633 0.312-1.384 0.503-2.289 0.546-0.902-0.043-1.653-0.23-2.287-0.537-0.168-0.081-0.331-0.168-0.483-0.267-0.966-0.63-1.591-1.612-1.988-2.872-0.046-0.145-0.090-0.291-0.13-0.444-0.105-0.403-0.191-0.829-0.258-1.281-0.027-0.178-0.048-0.362-0.069-0.547-0.057-0.495-0.098-1.013-0.122-1.556 0.076-0.441 0.186-0.807 0.318-1.107 0.199-0.031 0.628-0.118 1.133-0.334 0.080 0.102 0.215 0.167 0.353 0.158 0.072-0.003 1.024-0.054 2.030-0.421-0.005 0.042-0.002 0.086 0.009 0.129 0.043 0.168 0.203 0.288 0.389 0.292 0.086 0.003 1.797 0.022 2.853-1.101 0.407 0.908 1.322 2.395 3.187 3.328l0.278 0.357c-0.009 0.087-0.020 0.17-0.030 0.256zM20.379 10.22c-0.182 0.435-0.527 0.699-0.774 0.704 0.146-0.552 0.25-1.132 0.324-1.731 0.072-0.033 0.142-0.050 0.205-0.050 0.035 0 0.068 0.005 0.098 0.016 0.152 0.055 0.213 0.23 0.236 0.33 0.049 0.214 0.016 0.481-0.089 0.732zM13.364 11.002v-0.843c0-0.166 0.145-0.301 0.323-0.301s0.323 0.135 0.323 0.301v0.775h0.497c0.178 0 0.323 0.135 0.323 0.301s-0.145 0.301-0.323 0.301h-0.57c-0.316 0-0.573-0.239-0.573-0.533zM11.819 9.069c0 0.323-0.282 0.585-0.629 0.585s-0.629-0.262-0.629-0.585c0-0.323 0.282-0.585 0.629-0.585s0.629 0.262 0.629 0.585zM17.633 9.069c0 0.323-0.282 0.585-0.629 0.585s-0.629-0.262-0.629-0.585c0-0.323 0.282-0.585 0.629-0.585s0.629 0.262 0.629 0.585zM15.679 12.854c0 0.485-0.817 0.658-1.582 0.658s-1.582-0.173-1.582-0.658c0-0.166 0.145-0.301 0.323-0.301 0.144 0 0.266 0.088 0.308 0.209 0.108 0.060 0.448 0.149 0.951 0.149s0.843-0.089 0.951-0.149c0.042-0.121 0.164-0.209 0.308-0.209 0.178 0 0.323 0.135 0.323 0.301zM31.891 22.231c-0.093-0.152-0.237-0.265-0.409-0.331 0.027-0.165 0-0.339-0.095-0.496-0.093-0.152-0.237-0.265-0.409-0.33 0.027-0.165 0-0.339-0.095-0.496s-0.243-0.267-0.409-0.33c0.027-0.165 0.001-0.34-0.095-0.496-0.11-0.18-0.288-0.308-0.502-0.363-0.212-0.054-0.437-0.029-0.63 0.073l-0.328 0.173c-0.062-0.095-0.145-0.18-0.246-0.252v-0.329h1.831c0.178 0 0.323-0.135 0.323-0.301s-0.145-0.301-0.323-0.301h-1.831v-0.301h1.831c0.178 0 0.323-0.135 0.323-0.301s-0.145-0.301-0.323-0.301h-1.831v-0.301h1.831c0.178 0 0.323-0.135 0.323-0.301s-0.145-0.301-0.323-0.301h-1.831v-0.301h1.831c0.178 0 0.323-0.135 0.323-0.301s-0.145-0.301-0.323-0.301h-1.831l0.002-0.301h1.829c0.178 0 0.323-0.135 0.323-0.301s-0.145-0.301-0.323-0.301h-1.829c-0.364 0-0.648 0.308-0.648 0.701v1.448c-0.028-0.342-0.164-0.685-0.404-0.98-0.59-0.728-1.602-0.947-2.253-0.489-0.34 0.239-0.512 0.615-0.519 1.023-0.424-0.105-0.861-0.054-1.2 0.184-0.327 0.23-0.519 0.603-0.526 1.023-0.006 0.389 0.141 0.789 0.415 1.127s0.648 0.579 1.052 0.68c0.135 0.034 0.27 0.050 0.402 0.050 0.295 0 0.573-0.082 0.799-0.241 0.021-0.015 0.037-0.035 0.057-0.051l1.014 1.131-0.366 0.734c-0.028 0.045-0.053 0.091-0.076 0.139l-2.131 1.125-3.636-5.555c-0.089-0.136-0.198-0.253-0.314-0.36-0.192-0.231-0.47-0.396-0.793-0.449-0.314-0.097-0.648-0.128-0.98-0.076v4.029c0.079 0.023 0.152 0.056 0.216 0.101 0.119 0.083 0.206 0.2 0.242 0.338l1.59 6.197v-2.518l1.211 1.851c0.385 0.588 1.058 0.914 1.75 0.914 0.343 0 0.69-0.080 1.008-0.249l3.88-2.048c0.016-0.008 0.028-0.020 0.044-0.029 0.030 0.002 0.061 0.006 0.091 0.006 0.252 0 0.508-0.059 0.743-0.183l0.729-0.385 0.045 0.050c0.147 0.164 0.407 0.192 0.591 0.063l0.407-0.286c0.134-0.094 0.185-0.254 0.148-0.409l0.317-0.168c0.193-0.102 0.331-0.267 0.39-0.467s0.031-0.407-0.079-0.586zM30.011 20.843l0.059-0.031c0.028-0.014 0.059-0.022 0.090-0.022 0.016 0 0.033 0.002 0.049 0.006 0.048 0.012 0.087 0.041 0.111 0.080 0.050 0.082 0.019 0.187-0.069 0.233l-0.846 0.447c-0.043 0.022-0.092 0.027-0.139 0.016s-0.087-0.041-0.111-0.080c-0.050-0.082-0.019-0.187 0.069-0.233l0.787-0.416zM28.973 20.375l0.008-0.016c0.006-0.012 0.008-0.025 0.013-0.037 0.006-0.014 0.010-0.028 0.015-0.043l0.556-0.294c0.028-0.015 0.059-0.022 0.090-0.022 0.016 0 0.033 0.002 0.049 0.006 0.048 0.012 0.087 0.041 0.111 0.080 0.031 0.051 0.028 0.11 0.002 0.159-0.016 0.030-0.038 0.057-0.071 0.075l-0.846 0.447c-0.035 0.018-0.075 0.022-0.115 0.018l0.187-0.373zM25.273 18.735c-0.156 0.109-0.355 0.082-0.46 0.056-0.216-0.054-0.43-0.196-0.587-0.389s-0.244-0.423-0.241-0.632c0.002-0.101 0.028-0.286 0.184-0.396 0.078-0.055 0.175-0.081 0.279-0.081 0.253 0 0.555 0.152 0.767 0.413 0.299 0.369 0.325 0.839 0.058 1.027zM25.946 17.194c-0.299-0.368-0.325-0.839-0.057-1.027 0.078-0.055 0.174-0.081 0.279-0.081 0.253 0 0.555 0.153 0.767 0.414 0.157 0.193 0.245 0.423 0.242 0.631-0.002 0.101-0.028 0.286-0.184 0.396s-0.355 0.082-0.459 0.056c-0.216-0.054-0.43-0.196-0.587-0.389zM26.778 19.61c-0.147-0.182-0.109-0.44 0.087-0.577s0.473-0.101 0.62 0.081c0.052 0.064 0.072 0.137 0.080 0.21-0.121 0.073-0.223 0.172-0.287 0.298l-0.070 0.141c-0.158 0.026-0.326-0.025-0.43-0.153zM29.319 23.741l-0.296 0.156c-0.413 0.219-0.942 0.083-1.177-0.301l-0.799-1.308c-0.114-0.187-0.143-0.403-0.082-0.61l0.004-0.007 0.896-1.795c0.023-0.045 0.085-0.075 0.162-0.081 0.057-0.005 0.121 0.001 0.187 0.030s0.113 0.071 0.145 0.114c0.007 0.010 0.016 0.019 0.021 0.029 0.027 0.050 0.034 0.1 0.015 0.138l-0.793 1.584c-0.013 0.025-0.015 0.052-0.020 0.078-0.023 0.13 0.042 0.263 0.177 0.322 0.044 0.019 0.090 0.028 0.136 0.028s0.090-0.012 0.132-0.029v1.428c0 0.166 0.145 0.301 0.323 0.301s0.323-0.135 0.323-0.301v-1.043l0.979 1.092-0.333 0.176zM29.91 22.382c-0.043 0.022-0.093 0.029-0.139 0.016s-0.087-0.041-0.111-0.080c-0.050-0.082-0.019-0.187 0.069-0.233l0.846-0.447c0.028-0.015 0.059-0.022 0.090-0.022 0.016 0 0.033 0.002 0.049 0.006 0.047 0.012 0.087 0.041 0.111 0.080 0.050 0.082 0.019 0.187-0.069 0.233l-0.846 0.447zM31.347 22.658c-0.013 0.044-0.044 0.081-0.086 0.103 0 0 0 0-0 0l-0.845 0.447c-0.038 0.021-0.081 0.024-0.122 0.018-0.052-0.009-0.101-0.036-0.129-0.082-0.050-0.082-0.019-0.187 0.069-0.233l0.846-0.447c0.028-0.014 0.059-0.022 0.090-0.022 0.005 0 0.010 0.002 0.015 0.002 0.011 0.001 0.023 0.002 0.034 0.004 0.048 0.012 0.087 0.041 0.111 0.081s0.030 0.085 0.017 0.13zM20.551 31.361l-0.18-3.894c-0.001-0.010-0.002-0.020-0.005-0.031l-1.761-6.865c-0.006-0.026-0.020-0.049-0.038-0.070-0.048-0.057-0.131-0.094-0.224-0.094h-8.492c-0.093 0-0.176 0.037-0.224 0.094-0.018 0.021-0.032 0.044-0.038 0.070l-1.546 6.030-0.241-0.126c-0.051-0.026-0.102-0.047-0.152-0.068l1.52-5.928c0.035-0.138 0.123-0.255 0.242-0.338 0.064-0.044 0.137-0.078 0.215-0.1v-4.014c-0.754-0.227-1.614-0.035-2.17 0.555l-6.948 7.366c-0.385 0.409-0.565 0.951-0.493 1.49s0.389 1.025 0.87 1.333l3.986 2.555c0.124 0.080 0.256 0.14 0.391 0.191 0.163 0.174 0.357 0.323 0.577 0.437l1.815 0.941c0.004 0.002 0.008 0.002 0.011 0.004l-0.022 0.464-0.020 0.431c-0.003 0.059 0.029 0.102 0.056 0.128 0.051 0.050 0.129 0.079 0.211 0.079h12.414c0.083 0 0.16-0.029 0.212-0.079 0.027-0.026 0.058-0.070 0.056-0.128l-0.020-0.431zM5.103 24.849l2.477-2.625v4.154c-0.081-0.031-0.163-0.055-0.244-0.076-0.048-0.037-0.089-0.078-0.141-0.112l-2.091-1.341zM9.953 28.41c-0.029 0.049-0.098 0.067-0.15 0.040-0 0-0 0-0 0l-1.469-0.761c-0.081-0.042-0.177-0.040-0.264-0.008-0.079 0.028-0.149 0.080-0.191 0.149s-0.053 0.152-0.029 0.229c0.023 0.077 0.079 0.142 0.154 0.181l0.001 0.001 1.759 0.912c0.034 0.018 0.047 0.046 0.052 0.061s0.010 0.046-0.009 0.078c-0.019 0.032-0.049 0.043-0.066 0.048s-0.050 0.009-0.084-0.009l-1.76-0.913c-0.036-0.018-0.075-0.027-0.114-0.030-0.070-0.005-0.14 0.015-0.203 0.049-0.006 0.003-0.012 0.006-0.018 0.009-0.048 0.030-0.092 0.066-0.12 0.112-0.042 0.070-0.052 0.152-0.029 0.229 0.020 0.066 0.067 0.119 0.126 0.159 0.010 0.007 0.017 0.016 0.028 0.022l1.469 0.761c0.034 0.018 0.047 0.046 0.052 0.062s0.010 0.045-0.009 0.078c-0.019 0.032-0.049 0.044-0.066 0.048s-0.049 0.009-0.084-0.009l-1.633-0.846c-0.102-0.053-0.259-0.032-0.359 0.025-0.097 0.056-0.155 0.156-0.152 0.262 0.002 0.056 0.022 0.108 0.053 0.154 0.028 0.041 0.066 0.077 0.113 0.101l1.125 0.583c0.034 0.018 0.047 0.046 0.052 0.061s0.010 0.046-0.009 0.078c-0.029 0.049-0.098 0.068-0.15 0.040l-1.815-0.941c-0.301-0.156-0.538-0.405-0.667-0.702-0.175-0.402-0.155-0.841 0.053-1.175 0.253-0.406 0.74-0.707 1.282-0.707 0.22 0 0.448 0.051 0.674 0.162 0.006 0.003 0.013 0.005 0.020 0.009l2.395 1.256c0.034 0.018 0.047 0.047 0.052 0.062s0.010 0.046-0.009 0.077zM17.943 26.919c-0.009 0.528-0.557 0.759-0.836 0.351l-0.281-0.41c-0.075 0.243-0.188 0.471-0.336 0.679 0.001 0.032 0.005 0.064 0.005 0.097 0 1.363-1.073 2.468-2.398 2.468s-2.398-1.105-2.398-2.468c0-0.033 0.003-0.064 0.005-0.097-0.147-0.208-0.261-0.436-0.336-0.679l-0.281 0.41c-0.279 0.408-0.827 0.177-0.837-0.351-0.004-0.247-0.014-0.503-0.031-0.754-0.061-0.881 1.229-1.295 1.81-1.436 0.517-0.346 1.251-0.501 2.068-0.501s1.551 0.156 2.068 0.501c0.581 0.141 1.871 0.555 1.81 1.436-0.018 0.251-0.027 0.507-0.032 0.754zM13.114 28.749c0-0.371 0.44-0.672 0.983-0.672s0.983 0.301 0.983 0.672c0 0.371-0.44 0.672-0.983 0.672s-0.983-0.301-0.983-0.672z"></path>
    </symbol>
    <symbol id="icon-sect3_2nutrition" viewBox="0 0 32 32">
      <path d="M22.415 19.13c-0.748-0.148-1.489 0.341-1.801 1.188-0.061 0.164-0.102 0.334-0.126 0.507 0.772-0.462 1.447-1.018 2.030-1.674l-0.103-0.020zM23.109 10.926c1.403-1.12 1.801-3.423 0.888-5.144s-2.791-2.208-4.194-1.088c-1.403 1.12-1.801 3.423-0.888 5.144s2.791 2.208 4.194 1.088zM28.673 11.865c-1.311-1.991-3.092-2.014-4.075-1.202s-0.911 2.874-0.090 4.259c0.037 0.076 0.077 0.156 0.116 0.235 0.283-1.053 0.323-1.818 0.323-1.828 0.029-0.893 0.62-1.591 1.345-1.591 0.017 0 0.034 0 0.051 0.001 0.742 0.033 1.324 0.801 1.297 1.712v0.003l-0.001 0.015c-0.022 0.51-0.164 2.343-1.067 4.522-0.123 0.3-0.22 0.515-0.323 0.726l0.033-0.075c0.189 0.443 0.371 0.896 0.537 1.356l-1.149-0.226c-0.777 1.277-1.967 2.726-3.738 3.861l5.138 5.216c0.314 0.319 0.695 0.475 1.073 0.475 0.484 0 0.965-0.255 1.298-0.748 0.593-0.879 0.493-2.181-0.224-2.909l-1.236-1.255 0.4 0.079c0.124 0.024 0.246 0.030 0.367 0.022 0.29 0.017 0.632-0.107 1.051-0.287 1.166-0.498 2.488-1.377 2.144-4.055-0.694-3.597-1.482-5.555-3.271-8.306z"></path>
      <path d="M26.332 17.84c0.97-2.342 1.033-4.28 1.039-4.402 0.022-0.73-0.442-1.343-1.037-1.37s-1.093 0.541-1.117 1.269l-0-0c-0.002 0.084-0.092 1.678-0.879 3.475-0.796 1.799-2.226 3.82-5.122 5.003-0.565 0.229-0.873 0.976-0.686 1.67 0.149 0.556 0.571 0.908 1.024 0.908 0.112 0 0.226-0.022 0.338-0.067 3.541-1.421 5.48-4.147 6.441-6.486zM12.134 24.129c0.49 0.114 1.080 0.302 1.236 0.505 0.42 0.543 0.625 1.665 1.169 1.744 0.38 0.055 0.514 0.045 0.985-0.328 0.465-0.369 0.023-1.805-0.088-2.357-0.157-0.783 0.218-1.643 0.224-1.696 0.005-0.044 0.328-0.875 1.262-0.559 0.326 0.111 0.135-0.629-0.376-0.999-0.608-0.439-1.047-0.234-1.492 0.193-0.858-0.805-2.202-0.648-2.966-0.297-0.122 0.61-0.169 1.201-0.169 1.744-0 0.826 0.107 1.542 0.215 2.050zM14.312 22.392c0.2-0.167 0.472-0.104 0.609 0.141s0.084 0.579-0.115 0.746c-0.2 0.167-0.472 0.104-0.609-0.141s-0.085-0.579 0.115-0.746zM11.538 20.316c-0.199 0.003-0.388-0.004-0.569-0.021-0.063-0.019-0.129-0.031-0.197-0.027-0.004 0-0.008 0.002-0.012 0.002-2.749-0.383-3.497-2.933-6.708-0.287-0.97-0.35-2.126-1.101-3.002-2.705-0.177-0.322-0.533-0.407-0.796-0.19-0.263 0.217-0.333 0.654-0.155 0.976 0.833 1.51 1.863 2.395 2.829 2.913-0.011 0.029-0.023 0.064-0.035 0.097-0.248 0.457-0.442 1.059-0.568 1.861-0.018 0.117-0.804 6.273 0.431 6.273s1.574-4.656 2.264-5.253c0.097 0.011 1.929 2.365 3.494 2.069 0.367-0.070 0.863-0.347 1.277-0.643l0.677 3.324c0.076 0.373 0.348 0.626 0.653 0.626 0.033 0 0.067-0.003 0.101-0.009 0.344-0.063 0.591-0.434 0.573-0.86l-0.176-4.139c-0.118-0.552-0.238-1.333-0.238-2.246 0-0.549 0.044-1.144 0.158-1.763zM17.55 28.446h-0.17l-0.347-1.319h-3.889l-0.347 1.319h-0.17c-0.137 0-0.248 0.136-0.248 0.305s0.111 0.304 0.248 0.304h4.923c0.137 0 0.248-0.136 0.248-0.304s-0.111-0.305-0.248-0.305z"></path>
    </symbol>
    <symbol id="icon-sect3_3training" viewBox="0 0 32 30">
      <path d="M6.231 25.595l1.154-3.878-0.42-1.144c-0.891-0.149-1.626-0.597-2.098-1.193l-1.573 5.221-3.094 5.221c-0.42 0.696-0.157 1.591 0.577 1.989s1.678 0.149 2.098-0.547l3.251-5.37c0.052-0.099 0.105-0.199 0.105-0.298zM1.090 14.764c0.483 0.253 1.126 0.051 1.394-0.456l2.413-4.658 0.429-0.304 0.215-1.266c0.107-0.658 0.429-1.266 0.858-1.772l-2.896 1.772c-0.161 0.101-0.268 0.253-0.375 0.405l-2.521 4.911c-0.268 0.506-0.054 1.114 0.483 1.367zM10.338 5.408c1.631 0 2.954-1.211 2.954-2.704s-1.322-2.704-2.954-2.704c-1.631 0-2.954 1.211-2.954 2.704s1.322 2.704 2.954 2.704zM28.969 25.591s0.052 0.050 0.052 0.1c0.418-0.249 0.575-0.797 0.575-0.797 1.569 0.448 1.883-0.946 1.883-0.946 0.209-0.398-0.837-0.797-0.837-0.797-0.052-0.996-1.255-1.295-1.255-1.295-0.575-0.498-0.418 0-0.418 0-0.575-0.050-0.942 0.149-0.942 0.149-0.942-0.847-1.517 0.448-1.517 0.448-0.157 0-0.262 0.050-0.418 0.050 0.942 1.195 1.935 2.241 2.877 3.088zM30.429 28.782c-0.272-0.252-2.227-1.362-2.227-1.362 0.435-0.202 0.489-1.059 0.489-1.362-1.032-0.908-2.119-2.068-3.205-3.379-0.543 0.101-4.129 1.513-7.606 0.050-1.304-0.555-2.445 0.252-2.445 0.252-0.978 1.059-0.543 2.774-0.543 2.774l1.358-1.362c0.706-0.504 0.978-0.403 1.141-0.151 0.109 0.202 0.054 0.454-0.109 0.656-1.304 1.261-0.869 2.572-0.869 2.572l-1.847 1.513c-0.706 0.706 0.109 1.261 0.109 1.261 0.163-0.555 1.467-1.412 1.467-1.412-0.054 0.656 0.272 0.807 0.272 0.807 0.924-0.252 0.706-1.11 0.706-1.11 1.467-0.050 1.63-0.656 1.63-0.656 1.467 0.252 2.173-0.656 2.173-0.656 0.38 0.656 3.694 1.362 3.694 1.362 0.217 0.101 1.467 2.421 1.467 2.421 0.272 0.050 0.543 0.403 0.543 0.403 0.598 0.353 1.847-0.050 1.847-0.050-0.109-0.454-0.761-0.454-0.761-0.454-1.467 0-1.25-2.27-1.25-2.27 0.054-0.303 1.195 0.252 1.195 0.252l2.499 0.857c1.25 0.605 1.793-0.101 1.793-0.101 0.38-0.555-1.521-0.857-1.521-0.857zM18.215 11.014c1.241 2.511 3.885 7.484 7.283 11.521 0.162-0.049 0.378-0.049 0.593-0.098-0.054-0.049-0.108-0.098-0.162-0.197-3.399-3.988-6.043-8.961-7.23-11.423-0.216 0.148-0.432 0.197-0.486 0.197z"></path>
      <path d="M18.48 10.434c0.543-0.2 0.869-0.748 0.652-1.247s-0.814-0.798-1.357-0.599l-2.932 0.948c-3.421-2.944-3.584-3.443-4.941-3.642-1.738-0.249-3.367 0.898-3.638 2.495l-1.303 8.382c-0.271 1.597 0.977 3.093 2.715 3.343h0.163l1.412 3.892-2.878 3.892c-0.489 0.649-0.326 1.597 0.434 2.046 0.706 0.449 1.738 0.299 2.226-0.399l3.366-4.49c0.271-0.399 0.38-0.848 0.217-1.297l-1.792-4.939c0.271-0.349 0.489-0.798 0.543-1.247l1.195-7.434 1.357 1.197c0.271 0.249 0.706 0.349 1.086 0.2l3.475-1.098z"></path>
    </symbol>
    <symbol id="icon-sect3_4bathing" viewBox="0 0 38 32">
      <path d="M27.326 14.703c-0.239-0.556-0.658-1.236-1.496-1.792-0.479-0.309-2.334-0.556-2.394 1.174 0 0-0.778 0.124-0.718 0.68 0 0-0.479 1.668 1.796 1.483 0 0 0.419 3.151 0.778 3.83 0 0 0.18 0.618 0.239 1.236h0.958l0.060-1.236s0.539 0.371 0.958 1.236h1.377c-0.060-0.494-0.12-0.927-0.239-1.236 0 0 2.035 0 2.753-0.927 0 0 0.599 1.174 1.317 1.236v0.988h0.958c0.060-0.185 0.060-0.371 0.12-0.68 0 0 0.359 0.185 0.539 0.68h0.838c-0.12-0.432-1.197-4.448-1.556-4.757 0 0 0.539-0.062 0.718 0.618 0 0 0.299 1.421 0.898 1.359 0 0 0.419-0.927-0.299-2.1 0 0-0.299-0.865-1.856-0.741l-4.489-0.124c-0.599-0.124-1.018-0.494-1.257-0.927zM21.88 9.946c0.359-0.494 0.299-1.236-0.18-1.668-0.479-0.371-1.197-0.309-1.616 0.185-1.137 1.483-3.172 1.73-4.609 1.112l-0.778 2.224c2.454 0.988 5.447 0.494 7.183-1.853zM11.704 6.054c1.62 0 2.933-1.355 2.933-3.027s-1.313-3.027-2.933-3.027-2.933 1.355-2.933 3.027 1.313 3.027 2.933 3.027z"></path>
      <path d="M13.44 21.992l-2.514-1.050 1.496-4.386c-3.352-1.915-4.549-4.942-4.609-5.127-0.359-0.927 0.060-1.915 0.958-2.286s1.856 0.062 2.215 0.988c0.060 0.124 0.778 1.73 2.634 3.027l1.137-3.212c0.12-0.371 0.060-0.741-0.18-1.050-2.155-2.471-4.669-3.398-7.422-2.533-0.778 0.247-1.317 0.865-1.496 1.668l-2.394 12.849v0.371l0.12 5.869-1.317-0.309c-0.898-0.185-1.856 0.432-2.035 1.359s0.419 1.915 1.317 2.1l3.412 0.741c0.539 0.124 1.018 0 1.437-0.371s0.658-0.865 0.599-1.421l-0.12-6.178 4.37 1.792v5.375c0 0.988 0.778 1.792 1.736 1.792s1.736-0.803 1.736-1.792v-6.548c0.060-0.741-0.419-1.359-1.077-1.668z"></path>
      <path d="M18.049 15.259c-5.686-0.432-7.482-4.695-7.542-4.88-0.239-0.618-0.898-0.865-1.496-0.618s-0.838 0.927-0.599 1.544c0.12 0.247 2.394 5.807 9.517 6.363 0.658 0.062 1.197-0.432 1.197-1.112s-0.419-1.236-1.077-1.297zM28.284 7.228c-1.197 0.247-2.095 1.359-2.095 2.656h5.327c0-1.421-1.018-2.533-2.334-2.718-1.796-2.039-4.669-1.236-6.943 0.803 0.12 0.124 0.239 0.309 0.359 0.494 1.616-1.544 3.831-2.595 5.686-1.236zM37.382 21.869h-16.82c-0.479 0-0.898 0.432-0.898 0.927s0.419 0.927 0.898 0.927h0.18v1.544c0 2.409 1.915 4.386 4.25 4.386h8.081c2.334 0 4.25-1.977 4.25-4.386v-1.544h0.18c0.479 0 0.898-0.432 0.898-0.927-0.12-0.556-0.539-0.927-1.018-0.927zM26.668 11.12l0.060-0.556c0-0.185-0.060-0.309-0.239-0.309s-0.299 0.062-0.299 0.247l-0.060 0.556c0 0.185 0.060 0.309 0.239 0.309 0.12 0 0.239-0.124 0.299-0.247zM25.95 11.861l-0.060 0.556c0 0.185 0.060 0.309 0.239 0.309s0.299-0.062 0.299-0.247l0.060-0.556c0-0.185-0.060-0.309-0.239-0.309-0.12 0-0.239 0.124-0.299 0.247zM27.985 11.367c0.18 0 0.299-0.124 0.299-0.309v-0.618c0-0.185-0.12-0.309-0.299-0.309s-0.299 0.124-0.299 0.309v0.618c0 0.124 0.18 0.309 0.299 0.309zM27.626 12.479c0 0.185 0.12 0.309 0.299 0.309s0.299-0.124 0.299-0.309v-0.618c0-0.185-0.12-0.309-0.299-0.309s-0.299 0.124-0.299 0.309v0.618zM29.601 10.193c-0.18 0-0.299 0.124-0.299 0.309v0.618c0 0.185 0.12 0.309 0.299 0.309s0.299-0.124 0.299-0.309v-0.618c0-0.185-0.12-0.309-0.299-0.309zM29.421 11.923v0.618c0 0.185 0.12 0.309 0.299 0.309s0.299-0.124 0.299-0.309v-0.618c0-0.185-0.12-0.309-0.299-0.309-0.239 0-0.359 0.124-0.299 0.309zM31.157 10.193c-0.18 0-0.239 0.185-0.239 0.309l0.060 0.556c0 0.124 0.12 0.247 0.299 0.247s0.299-0.185 0.299-0.371l-0.12-0.494c0-0.185-0.18-0.309-0.299-0.247zM31.098 11.985l0.060 0.556c0 0.124 0.18 0.247 0.299 0.247 0.18 0 0.299-0.185 0.239-0.309v-0.618c0-0.185-0.18-0.247-0.299-0.247-0.18 0.062-0.299 0.185-0.299 0.371z"></path>
    </symbol>
    <symbol id="icon-arrow-more" viewBox="0 0 53 32">
      <path d="M52.952 16.92c0.508-0.508 0.508-1.332 0-1.84l-8.278-8.278c-0.508-0.508-1.331-0.508-1.84 0s-0.508 1.332 0 1.84l7.359 7.359-7.359 7.359c-0.508 0.508-0.508 1.331 0 1.84s1.332 0.508 1.84 0l8.278-8.278zM0 17.301h52.033v-2.602h-52.033v2.602z"></path>
    </symbol>
    <symbol id="icon-bone-count" viewBox="0 0 73 32">
      <path d="M72.673 13.749c0.834-1.892 0.379-4.677 0-6.753-0.295-1.765-1.027-3.222-2.124-4.502s-2.718-1.886-4.247-2.251c-1.214-0.314-3.038-0.336-4.247 0s-1.168 1.335-2.124 2.251c-2.383 2.173-5.455 2.326-8.494 2.251h-29.731c-3.039 0.076-6.112-0.078-8.494-2.251-0.956-0.916-0.914-1.915-2.124-2.251s-3.034-0.314-4.247 0c-1.529 0.365-3.151 0.971-4.247 2.251s-1.828 2.737-2.124 4.502c-0.38 2.076-0.834 4.861 0 6.753 0.302 0.681 2.124 1.486 2.124 2.251s-1.821 1.57-2.124 2.251c-0.832 1.892-0.378 4.677 0 6.753 0.296 1.766 1.028 3.22 2.124 4.502s2.718 1.882 4.247 2.251c1.214 0.313 3.038 0.336 4.247 0s1.168-1.335 2.124-2.251c2.382-2.176 5.454-2.322 8.494-2.251h29.731c3.040-0.071 6.113 0.075 8.494 2.251 0.956 0.916 0.914 1.915 2.124 2.251s3.034 0.313 4.247 0c1.529-0.369 3.151-0.969 4.247-2.251s1.828-2.736 2.124-4.502c0.378-2.076 0.832-4.861 0-6.753-0.302-0.681-2.124-1.486-2.124-2.251s1.822-1.57 2.124-2.251z"></path>
    </symbol>
    <symbol id="icon-bckgr-hero" viewBox="0 0 57 32">
      <path d="M47.139 5.647c-16.182 1.724-53.615-9.347-50.881-4.332s3.402 2.608 3.402 2.608l-4.533 22.033s11.765 4.991 11.845 0.782c0.081-4.209 22.337 4.431 34.445 5.22s18.245-9.765 14.536-8.983 7.367-19.052-8.815-17.328z"></path>
    </symbol>
    <symbol id="icon-header-basket0" viewBox="0 0 31 32">
      <path d="M1.467 12.878h28.293v-2.081h-28.293v2.081zM29.142 12.26v0.914h2.081v-0.914h-2.081zM25.783 29.528h-20.338v2.081h20.338v-2.081zM2.085 13.174v-0.914h-2.081v0.914h2.081zM6.031 29.891c-2.488-4.87-3.946-10.623-3.946-16.717 0-0 0-0 0-0v0h-2.081c0 6.127 1.426 12.169 4.167 17.649l1.861-0.932zM5.444 29.528c0 0 0 0 0 0 0.255 0 0.476 0.146 0.585 0.358l0.002 0.004-1.861 0.932c0.239 0.47 0.72 0.786 1.274 0.787h0v-2.081zM25.196 29.891c0.11-0.216 0.331-0.362 0.586-0.362 0 0 0 0 0.001 0h-0v2.081c0.541 0 1.032-0.304 1.274-0.787l-1.861-0.932zM29.142 13.174c0 5.803-1.353 11.526-3.946 16.717l1.861 0.932c2.627-5.142 4.167-11.216 4.167-17.649v-0h-2.081zM29.76 12.878c-0 0-0 0-0 0-0.341 0-0.618-0.277-0.618-0.618 0-0 0-0 0-0v0h2.081c-0-0.808-0.655-1.463-1.463-1.463 0 0-0 0-0 0v0 2.081zM1.467 10.797c0 0-0 0-0 0-0.404 0-0.77 0.164-1.035 0.429v0c-0.265 0.265-0.429 0.63-0.429 1.035v0h2.081c-0 0.341-0.277 0.618-0.618 0.618v0-2.081zM8.181 12.372l6.244-10.406-1.788-1.070-6.244 10.407 1.788 1.070zM16.802 1.966l6.244 10.406 1.786-1.070-6.244-10.407-1.786 1.070zM10.41 21.203h10.406v-2.081h-10.406v2.081z"></path>
    </symbol>
    <symbol id="icon-header-basket" viewBox="0 0 31 32">
      <path d="M1.467 12.878h28.293v-2.081h-28.293v2.081zM29.142 12.26v0.914h2.081v-0.914h-2.081zM25.783 29.528h-20.338v2.081h20.338v-2.081zM2.085 13.174v-0.914h-2.081v0.914h2.081zM6.031 29.891c-2.488-4.87-3.946-10.623-3.946-16.717 0-0 0-0 0-0v0h-2.081c0 6.127 1.426 12.169 4.167 17.649l1.861-0.932zM5.444 29.528c0 0 0 0 0 0 0.255 0 0.476 0.146 0.585 0.358l0.002 0.004-1.861 0.932c0.239 0.47 0.72 0.786 1.274 0.787h0v-2.081zM25.196 29.891c0.11-0.216 0.331-0.362 0.586-0.362 0 0 0 0 0.001 0h-0v2.081c0.541 0 1.032-0.304 1.274-0.787l-1.861-0.932zM29.142 13.174c0 5.803-1.353 11.526-3.946 16.717l1.861 0.932c2.627-5.142 4.167-11.216 4.167-17.649v-0h-2.081zM29.76 12.878c-0 0-0 0-0 0-0.341 0-0.618-0.277-0.618-0.618 0-0 0-0 0-0v0h2.081c-0-0.808-0.655-1.463-1.463-1.463 0 0-0 0-0 0v0 2.081zM1.467 10.797c0 0-0 0-0 0-0.404 0-0.77 0.164-1.035 0.429v0c-0.265 0.265-0.429 0.63-0.429 1.035v0h2.081c-0 0.341-0.277 0.618-0.618 0.618v0-2.081zM8.181 12.372l6.244-10.406-1.788-1.070-6.244 10.407 1.788 1.070zM16.802 1.966l6.244 10.406 1.786-1.070-6.244-10.407-1.786 1.070zM10.41 21.203h10.406v-2.081h-10.406v2.081z"></path>
    </symbol>
    <symbol id="icon-instagram1" viewBox="0 0 32 32">
      <path stroke-width="2.1" stroke-miterlimit="4" stroke-linecap="round" stroke-linejoin="round" d="M16 21.333c0 0 0 0 0 0 2.945 0 5.333-2.388 5.333-5.333 0-0 0-0 0-0v0c-0-2.945-2.388-5.333-5.333-5.333s-5.333 2.388-5.333 5.333c0 2.946 2.388 5.333 5.333 5.333 0 0 0 0 0 0v0z"></path>
      <path stroke-width="2.1" stroke-miterlimit="4" stroke-linecap="butt" stroke-linejoin="miter" d="M4 21.333v-10.667c0-3.682 2.985-6.667 6.667-6.667v0h10.667c0 0 0 0 0 0 3.682 0 6.667 2.985 6.667 6.667 0 0 0 0 0 0v0 10.667c-0 3.682-2.985 6.667-6.667 6.667h-10.667c-3.682-0-6.667-2.985-6.667-6.667v0z"></path>
    </symbol>
    <symbol id="icon-facebook" viewBox="0 0 32 32">
      <path d="M29 16c0-7.18-5.82-13-13-13s-13 5.82-13 13c0 7.18 5.82 13 13 13v0c3.589-0.004 6.837-1.459 9.189-3.811v0c2.352-2.352 3.808-5.6 3.811-9.188v-0.001zM17 26.95v-7.95h3c0 0 0 0 0 0 0.552 0 1-0.448 1-1 0-0.276-0.112-0.526-0.293-0.707v0c-0.181-0.181-0.431-0.293-0.707-0.293 0 0-0 0-0 0h-3v-3c0-0.552 0.224-1.052 0.586-1.414v0c0.362-0.362 0.862-0.586 1.414-0.586h2c0 0 0 0 0 0 0.552 0 1-0.448 1-1 0-0.276-0.112-0.526-0.293-0.707v0c-0.181-0.181-0.431-0.293-0.707-0.293 0 0-0 0-0 0h-2c-2.206 0.007-3.993 1.794-4 3.999v3.001h-3c0 0-0 0-0 0-0.552 0-1 0.448-1 1 0 0.276 0.112 0.526 0.293 0.707v0c0.181 0.181 0.431 0.293 0.707 0.293 0 0 0 0 0 0h3v7.95c-5.629-0.529-10-5.231-10-10.954 0-0.176 0.004-0.351 0.012-0.525l-0.001 0.025c0.138-2.94 1.41-5.559 3.385-7.449l0.004-0.004c1.971-1.886 4.65-3.047 7.599-3.047s5.628 1.161 7.603 3.051l-0.004-0.004c2.097 2.006 3.401 4.828 3.401 7.953 0 2.773-1.026 5.307-2.72 7.242l0.011-0.013c-1.812 2.070-4.368 3.451-7.247 3.722l-0.044 0.003z"></path>
    </symbol>
    <symbol id="icon-instagram" viewBox="0 0 32 32">
      <path d="M10.053 2.99c-1.644 0.129-3.186 0.774-4.437 1.855-1.512 1.307-2.436 3.12-2.628 5.154-0.074 0.79-0.074 11.21 0 12 0.355 3.77 3.241 6.656 7.011 7.011 0.79 0.074 11.21 0.074 12 0 3.77-0.355 6.656-3.241 7.011-7.011 0.074-0.79 0.074-11.21 0-12-0.101-1.068-0.358-1.941-0.861-2.92-0.869-1.693-2.489-3.078-4.337-3.708-0.638-0.218-1.184-0.325-1.966-0.386-0.769-0.060-11.024-0.056-11.793 0.004zM22.3 5.145c2.322 0.407 4.149 2.234 4.555 4.555 0.116 0.665 0.116 11.934 0 12.599-0.345 1.967-1.73 3.619-3.615 4.311-0.857 0.315-0.393 0.296-7.24 0.296-6.856 0-6.378 0.020-7.253-0.3-1.86-0.679-3.261-2.349-3.599-4.293-0.121-0.692-0.12-11.939 0-12.631 0.398-2.28 2.229-4.123 4.507-4.535 0.616-0.111 12.011-0.115 12.646-0.004zM15.414 9.658c-1.748 0.168-3.234 0.955-4.342 2.299-0.67 0.812-1.089 1.684-1.323 2.754-0.146 0.665-0.157 1.913-0.023 2.507 0.302 1.337 0.871 2.395 1.767 3.289 1.975 1.969 4.85 2.428 7.388 1.18 1.165-0.573 2.233-1.641 2.806-2.806 1.179-2.397 0.838-5.095-0.898-7.107-0.47-0.544-1.403-1.243-2.041-1.53-0.783-0.351-1.382-0.512-2.187-0.588-0.323-0.031-0.611-0.052-0.64-0.048s-0.257 0.027-0.506 0.051zM17.2 11.893c1.18 0.373 2.070 1.125 2.611 2.208 0.355 0.71 0.428 1.039 0.428 1.926-0 0.824-0.087 1.22-0.41 1.865-0.997 1.99-3.272 2.881-5.362 2.099-0.65-0.243-1.373-0.769-1.805-1.314-0.296-0.373-0.684-1.145-0.809-1.61-0.146-0.543-0.129-1.715 0.033-2.24 0.414-1.344 1.33-2.343 2.577-2.812 0.625-0.235 0.911-0.279 1.696-0.258 0.502 0.013 0.759 0.047 1.040 0.136z"></path>
    </symbol>
    <symbol id="icon-close1" viewBox="0 0 32 32">
      <path stroke-width="3.5556" stroke-miterlimit="4" stroke-linecap="round" stroke-linejoin="miter" d="M1.778 1.778l14.222 14.222 14.222-14.222M1.778 30.222l14.222-14.222 14.222 14.222"></path>
    </symbol>
    <symbol id="icon-close" viewBox="0 0 32 32">
      <path stroke-width="2" stroke-miterlimit="4" stroke-linecap="round" stroke-linejoin="miter" d="M8 8l8 8 8-8M8 24l8-8 8 8"></path>
    </symbol>
    <symbol id="icon-sect4_1your-name" viewBox="0 0 32 32">
      <path d="M11.384 9.714c0-1.125 0.446-2.204 1.241-3s1.872-1.243 2.995-1.243c1.123 0 2.201 0.447 2.995 1.243s1.241 1.875 1.241 3-0.446 2.204-1.241 3c-0.794 0.796-1.872 1.243-2.995 1.243s-2.2-0.447-2.995-1.243c-0.794-0.796-1.241-1.875-1.241-3zM15.619 3.048c-1.765 0-3.458 0.702-4.706 1.953s-1.949 2.946-1.949 4.714 0.701 3.464 1.949 4.714c1.248 1.25 2.941 1.953 4.706 1.953s3.458-0.702 4.706-1.953c1.248-1.25 1.949-2.946 1.949-4.714s-0.701-3.464-1.949-4.714c-1.248-1.25-2.941-1.953-4.706-1.953zM5.333 22.442c0-0.964 0.382-1.889 1.063-2.571s1.604-1.065 2.567-1.065h13.311c0.963 0 1.886 0.383 2.567 1.065s1.063 1.607 1.063 2.571v0.274c-0.002 0.113-0.011 0.226-0.024 0.338-0.024 0.21-0.069 0.494-0.157 0.831-0.232 0.889-0.644 1.721-1.209 2.445-1.416 1.821-4.079 3.384-8.895 3.384s-7.478-1.564-8.895-3.384c-0.565-0.724-0.977-1.556-1.21-2.445-0.092-0.357-0.152-0.721-0.177-1.088-0.001-0.027-0.002-0.054-0.002-0.081v-0.028l-0.001-0.010v-0.236zM7.753 22.657v0.015c0.017 0.204 0.051 0.406 0.103 0.604 0.109 0.422 0.33 0.991 0.776 1.565 0.853 1.096 2.727 2.45 6.987 2.45s6.135-1.354 6.987-2.448c0.362-0.464 0.625-0.997 0.774-1.566 0.052-0.198 0.087-0.4 0.104-0.604l0.001-0.015v-0.216c0-0.321-0.128-0.63-0.354-0.857s-0.535-0.355-0.856-0.355h-13.312c-0.321 0-0.629 0.128-0.856 0.355s-0.354 0.536-0.354 0.857v0.216z"></path>
    </symbol>
    <symbol id="icon-sect4_2pet-name" viewBox="0 0 32 32">
      <path d="M6.467 29.333v-12.8l-0.367-0.367c-0.244-0.244-0.433-0.533-0.567-0.867s-0.2-0.678-0.2-1.033c0-0.355 0.067-0.694 0.2-1.016s0.322-0.606 0.567-0.851l4.367-4.4h5.333l5.333-5.333 2.733 2.733c0.889 0.889 1.578 1.894 2.067 3.016s0.733 2.317 0.733 3.584c0 1.267-0.244 2.461-0.733 3.584-0.489 1.122-1.178 2.127-2.067 3.016l-2.733 2.733v8h-14.667zM9.133 26.667h9.333v-6.433l3.5-3.5c0.644-0.645 1.144-1.367 1.5-2.167s0.533-1.655 0.533-2.567c0-0.889-0.184-1.733-0.551-2.533s-0.86-1.522-1.483-2.167l-0.833-0.867-4.233 4.233h-5.333l-0.767 0.767 2.233 2.233c0.622 0.622 1.106 1.339 1.451 2.149s0.516 1.662 0.516 2.551-0.167 1.739-0.5 2.551c-0.333 0.811-0.822 1.538-1.467 2.183l-3.9-3.9v7.467z"></path>
    </symbol>
    <symbol id="icon-sect4_3your-phone" viewBox="0 0 32 32">
      <path d="M27.833 29.333c-3.467 0-6.727-0.656-9.783-1.967s-5.723-3.105-8-5.383c-2.278-2.278-4.078-4.945-5.4-8s-1.984-6.329-1.984-9.817c-0.022-0.4 0.111-0.75 0.4-1.051s0.644-0.449 1.067-0.449h5.2c0.4 0 0.744 0.15 1.033 0.449s0.433 0.662 0.433 1.084c0 0.978 0.067 1.9 0.2 2.767s0.344 1.689 0.633 2.467c0.111 0.244 0.133 0.494 0.067 0.749s-0.2 0.495-0.4 0.717l-3.333 3.333c0.956 1.955 2.311 3.811 4.067 5.567s3.645 3.155 5.667 4.2l3.333-3.333c0.2-0.2 0.433-0.333 0.7-0.4s0.533-0.044 0.8 0.067c0.822 0.267 1.672 0.472 2.549 0.616s1.784 0.217 2.717 0.217c0.422 0 0.784 0.156 1.084 0.467 0.299 0.311 0.449 0.689 0.449 1.133v5.1c0 0.4-0.144 0.744-0.433 1.033s-0.645 0.433-1.067 0.433zM20.167 25.333c1 0.378 2.044 0.678 3.133 0.9s2.211 0.367 3.367 0.433v-2.867c-0.689-0.044-1.394-0.122-2.116-0.233-0.723-0.111-1.44-0.278-2.151-0.5l-2.233 2.267zM26.667 16c0-2.978-1.033-5.5-3.1-7.567s-4.589-3.1-7.567-3.1v-2.667c1.844 0 3.578 0.35 5.2 1.049s3.033 1.651 4.233 2.851 2.15 2.611 2.849 4.233c0.7 1.622 1.051 3.355 1.051 5.2h-2.667zM21.333 16c0-1.467-0.522-2.722-1.567-3.767s-2.3-1.567-3.767-1.567v-2.667c2.222 0 4.111 0.778 5.667 2.333s2.333 3.444 2.333 5.667h-2.667zM6.667 11.767l2.2-2.233c-0.178-0.644-0.328-1.322-0.451-2.033s-0.205-1.433-0.249-2.167h-2.8c0.044 1.067 0.178 2.133 0.4 3.2s0.522 2.144 0.9 3.233z"></path>
    </symbol>
    <symbol id="icon-sect4_4your-email" viewBox="0 0 32 32">
      <path d="M16 29.333c-1.822 0-3.544-0.35-5.167-1.051s-3.039-1.655-4.249-2.867c-1.212-1.211-2.167-2.627-2.867-4.249s-1.051-3.344-1.051-5.167c0-1.845 0.35-3.572 1.051-5.183s1.655-3.023 2.867-4.233c1.211-1.212 2.627-2.168 4.249-2.868s3.345-1.049 5.167-1.049c1.844 0 3.572 0.35 5.183 1.049s3.023 1.656 4.233 2.868c1.212 1.211 2.167 2.622 2.867 4.233s1.051 3.338 1.051 5.183v1.933c0 1.311-0.45 2.427-1.349 3.349-0.901 0.923-2.006 1.384-3.317 1.384-0.8 0-1.544-0.178-2.233-0.533s-1.256-0.822-1.7-1.4c-0.6 0.6-1.305 1.072-2.116 1.417s-1.684 0.516-2.617 0.516c-1.845 0-3.416-0.65-4.716-1.951s-1.951-2.872-1.951-4.716c0-1.845 0.65-3.417 1.951-4.717s2.872-1.949 4.716-1.949c1.844 0 3.417 0.65 4.717 1.949s1.949 2.873 1.949 4.717v1.933c0 0.644 0.2 1.15 0.6 1.516s0.867 0.551 1.4 0.551c0.533 0 1-0.184 1.4-0.551s0.6-0.872 0.6-1.516v-1.933c0-2.911-1.050-5.417-3.151-7.517s-4.605-3.149-7.516-3.149-5.417 1.050-7.517 3.149c-2.1 2.1-3.149 4.606-3.149 7.517s1.050 5.416 3.149 7.516c2.1 2.1 4.606 3.151 7.517 3.151h6.667v2.667h-6.667zM16 20c1.111 0 2.055-0.389 2.833-1.167s1.167-1.722 1.167-2.833c0-1.111-0.389-2.056-1.167-2.833s-1.722-1.167-2.833-1.167c-1.111 0-2.056 0.389-2.833 1.167s-1.167 1.722-1.167 2.833c0 1.111 0.389 2.056 1.167 2.833s1.722 1.167 2.833 1.167z"></path>
    </symbol>
    <symbol id="icon-paw" viewBox="0 0 32 32">
      <path d="M21.441 15.422c1.953 2.349 5.221-1.079 5.22-3.537 2.229-3.987-1.949-6.633-4.365-2.928-2.416 1.247-3.644 5.918-0.855 6.465zM21.994 14.701c-2.603-0.264-1.006-4.357 0.621-5.267l0.078-0.399c2.090-3.277 5.344-0.982 3.254 2.296l-0.078 0.399c0.094 1.985-2.55 5.197-4.271 2.894l0.396 0.078zM14.176 10.958c1.951 2.36 5.296-1.465 5.298-3.936 2.234-4.011-1.976-6.494-4.443-2.529-2.418 1.256-3.644 5.918-0.855 6.465zM14.729 10.238c-2.603-0.263-1.007-4.35 0.621-5.267l0.078-0.399c2.094-3.297 5.348-1.001 3.254 2.296 0.092 1.995-2.63 5.607-4.349 3.293l0.396 0.078zM23.908 24.082c1.821 1.822 5.060 0.117 4.589-2.417 1.531-2.874-2.842-5.389-4.839-2.606-2.328 0.765-2.034 4.331 0.25 5.023zM24.461 23.362l-0.396-0.078c-1.818-0.601-1.858-3.362-0.089-3.748l0.396 0.078c1.393-2.169 4.725-0.273 3.332 1.896l-0.078 0.399c0.377 1.783-1.843 3.347-3.243 1.852l0.078-0.399zM5.341 13.128c1.821 1.822 5.060 0.117 4.589-2.417 1.531-2.875-2.842-5.389-4.839-2.606-2.328 0.765-2.034 4.332 0.25 5.023zM5.894 12.407l-0.396-0.078c-1.818-0.601-1.858-3.362-0.089-3.748l0.396 0.078c1.393-2.169 4.725-0.273 3.332 1.896l-0.078 0.399c0.377 1.783-1.843 3.347-3.243 1.852l0.078-0.399z"></path>
      <path d="M20.026 22.72c3.778-6.851-7.543-13.799-11.743-7.275-8.055 2.585-3.997 8.619 0.98 11.799 5.024 2.944 12.286 3.857 10.763-4.523zM19.233 22.565c1.428 7.627-4.863 6.81-9.418 3.958s-8.833-7.761-1.293-10.202l0.078-0.399c3.873-6.098 14.037 0.453 10.632 6.643z"></path>
    </symbol>
    <symbol id="icon-bone-contacts" viewBox="0 0 34 32">
      <path d="M28.457 7.892c-1.019-2.423-3.494-3.71-5.507-2.863-1.775 0.747-2.615 2.827-2.115 4.98l-10.704 4.502c-1.189-1.864-3.264-2.718-5.039-1.971-2.014 0.847-2.825 3.515-1.805 5.939 0.443 1.052 1.15 1.918 2.028 2.45-0.221 1.031-0.11 2.11 0.332 3.163 1.019 2.424 3.494 3.71 5.507 2.863 1.775-0.747 2.615-2.827 2.115-4.98l10.678-4.491c1.189 1.864 3.264 2.718 5.039 1.971 2.014-0.847 2.825-3.515 1.805-5.939-0.443-1.052-1.15-1.918-2.028-2.45 0.248-1.042 0.137-2.122-0.306-3.174zM27.614 12.337c0.771 0.276 1.424 0.94 1.773 1.769 0.63 1.499 0.133 3.134-1.112 3.658-1.219 0.513-2.708-0.212-3.365-1.699-0.201-0.478-0.667-0.695-1.064-0.528l-11.896 5.004c-0.397 0.167-0.528 0.672-0.367 1.13 0.591 1.478 0.107 3.070-1.139 3.594s-2.762-0.265-3.392-1.763c-0.349-0.829-0.366-1.76-0.024-2.504 0.118-0.237 0.091-0.526-0.017-0.781s-0.321-0.466-0.547-0.558c-0.771-0.276-1.424-0.94-1.773-1.769-0.63-1.499-0.133-3.134 1.112-3.658 1.219-0.513 2.708 0.212 3.365 1.699 0.201 0.478 0.667 0.695 1.064 0.528l11.949-5.026c0.397-0.167 0.528-0.672 0.367-1.13-0.591-1.478-0.107-3.070 1.139-3.594s2.762 0.264 3.392 1.763c0.349 0.829 0.366 1.76 0.024 2.504-0.118 0.237-0.091 0.526 0.017 0.781 0.054 0.277 0.268 0.488 0.494 0.58z"></path>
      <path d="M14.262 9.359c0.397-0.167 0.554-0.684 0.353-1.162l-0.952-2.264c-0.201-0.478-0.68-0.727-1.078-0.56s-0.554 0.684-0.353 1.162l0.952 2.264c0.201 0.478 0.68 0.727 1.078 0.56zM17.154 8.968c0.133 0.019 0.226 0.018 0.332-0.027 0.265-0.111 0.449-0.414 0.435-0.746l-0.064-2.375c-0.015-0.481-0.389-0.925-0.827-1.003-0.425-0.046-0.768 0.323-0.779 0.816l0.064 2.375c0.015 0.481 0.389 0.925 0.84 0.96zM10.859 11.128c0.267 0.263 0.572 0.322 0.837 0.211 0.106-0.045 0.199-0.121 0.251-0.218 0.264-0.336 0.208-0.913-0.138-1.293l-1.653-1.707c-0.333-0.348-0.838-0.361-1.128-0.013-0.264 0.336-0.208 0.913 0.138 1.293l1.693 1.727zM19.842 22.625c-0.397 0.167-0.554 0.684-0.353 1.162l0.952 2.264c0.201 0.478 0.68 0.727 1.078 0.56s0.554-0.684 0.353-1.162l-0.952-2.264c-0.201-0.478-0.68-0.727-1.078-0.56zM16.95 23.015c-0.425-0.046-0.768 0.323-0.779 0.816l0.064 2.375c0.015 0.481 0.389 0.925 0.827 1.003 0.133 0.019 0.226 0.018 0.332-0.027 0.265-0.111 0.449-0.414 0.435-0.746l-0.064-2.375c0.011-0.567-0.363-1.011-0.814-1.046zM23.245 20.855c-0.333-0.348-0.838-0.361-1.128-0.013-0.264 0.336-0.208 0.913 0.138 1.293l1.653 1.706c0.267 0.263 0.572 0.322 0.837 0.211 0.106-0.045 0.199-0.121 0.251-0.218 0.264-0.336 0.208-0.913-0.138-1.293l-1.613-1.686z"></path>
    </symbol>
    <symbol id="icon-part4" viewBox="0 0 21 32">
      <path d="M1.099 3.655c-5.955 1.717-11.464 6.442-9.904 11.856l2.286 7.93c1.56 5.414 8.753 6.529 14.708 4.813s11.464-6.442 9.904-11.855l-2.3-7.978c-1.547-5.366-8.739-6.482-14.695-4.765zM1.203 26.976c-3.515-0.324-6.085-1.846-6.646-3.793l-1.259-4.369c1.685 1.469 4.1 2.161 6.715 2.282-0.258 1.052-0.173 2.416 0.197 3.698 0.233 0.807 0.581 1.53 0.994 2.182zM-3.952 18.432c1.711-2.139 4.558-3.937 7.898-4.9s6.707-0.956 9.295-0.056c-1.597 1.952-4.313 3.815-7.912 4.852-3.585 1.085-6.877 0.953-9.281 0.104zM17.032 16.704c0.876 3.039-2.775 7.692-9.403 9.603-1.424 0.41-2.76 0.641-4.059 0.707-0.883 0.049-1.874-1.054-2.299-2.526-0.246-0.855-0.284-1.667-0.086-2.341 0.172-0.667 0.556-1.086 1.050-1.126 1.234-0.098 2.478-0.354 3.669-0.698 4.48-1.291 8.713-4.312 9.855-8.035l1.273 4.416zM14.221 12.011c-2.867-1.385-6.874-1.567-10.836-0.426s-7.257 3.429-8.947 6.128c-1.115-0.656-1.894-1.511-2.181-2.509-0.876-3.039 2.775-7.692 9.403-9.602s12.21 0.132 13.072 3.124c0.287 0.997 0.083 2.136-0.511 3.285z"></path>
      <path d="M3.401 25.262c0.357-0.103 0.494-0.718 0.305-1.374s-0.632-1.104-0.99-1.001-0.494 0.718-0.305 1.374c0.189 0.656 0.632 1.104 0.99 1.001zM5.515 24.91c0.358-0.103 0.494-0.718 0.305-1.374s-0.632-1.104-0.99-1.001c-0.358 0.103-0.494 0.718-0.305 1.374s0.632 1.104 0.99 1.001zM7.614 24.408c0.357-0.103 0.494-0.718 0.305-1.374s-0.632-1.104-0.99-1.001c-0.357 0.103-0.494 0.718-0.305 1.374s0.632 1.104 0.99 1.001zM9.632 23.723c0.357-0.103 0.494-0.718 0.305-1.374s-0.632-1.104-0.99-1.001-0.494 0.718-0.305 1.374c0.189 0.656 0.632 1.104 0.99 1.001z"></path>
    </symbol>
    <symbol id="icon-collar-contacts" viewBox="0 0 30 32">
      <path d="M11.714 4.243c-5.672 1.635-10.918 6.135-9.432 11.291l2.177 7.553c1.486 5.156 8.336 6.218 14.008 4.583s10.918-6.135 9.432-11.291l-2.19-7.598c-1.473-5.111-8.323-6.173-13.995-4.538zM11.812 26.453c-3.347-0.309-5.795-1.758-6.33-3.613l-1.199-4.161c1.605 1.399 3.905 2.058 6.396 2.173-0.246 1.001-0.165 2.301 0.187 3.522 0.222 0.769 0.553 1.457 0.946 2.078zM6.903 18.316c1.63-2.037 4.341-3.75 7.522-4.666s6.388-0.911 8.852-0.053c-1.521 1.859-4.108 3.633-7.535 4.621-3.415 1.033-6.549 0.908-8.839 0.099zM26.887 16.67c0.834 2.894-2.643 7.326-8.956 9.145-1.356 0.391-2.628 0.611-3.866 0.674-0.841 0.046-1.785-1.004-2.189-2.406-0.235-0.814-0.271-1.587-0.082-2.23 0.164-0.635 0.53-1.034 1-1.072 1.175-0.094 2.36-0.337 3.494-0.664 4.266-1.23 8.298-4.106 9.386-7.653l1.212 4.206zM24.21 12.201c-2.731-1.319-6.547-1.493-10.32-0.405s-6.911 3.266-8.521 5.836c-1.062-0.625-1.804-1.439-2.078-2.389-0.834-2.894 2.643-7.326 8.956-9.145s11.628 0.126 12.449 2.975c0.274 0.95 0.079 2.035-0.487 3.128z"></path>
      <path d="M13.906 24.821c0.34-0.098 0.471-0.684 0.291-1.308s-0.602-1.051-0.942-0.953c-0.341 0.098-0.471 0.684-0.291 1.308s0.602 1.051 0.942 0.953zM15.919 24.485c0.341-0.098 0.471-0.684 0.291-1.308s-0.602-1.051-0.942-0.953c-0.341 0.098-0.471 0.684-0.291 1.308s0.602 1.051 0.942 0.953zM17.918 24.007c0.34-0.098 0.471-0.684 0.291-1.308s-0.602-1.051-0.942-0.953c-0.341 0.098-0.471 0.684-0.291 1.308s0.602 1.051 0.942 0.953zM19.84 23.355c0.34-0.098 0.471-0.684 0.291-1.308s-0.602-1.051-0.942-0.953c-0.34 0.098-0.471 0.684-0.291 1.308s0.602 1.051 0.942 0.953z"></path>
    </symbol>
    <symbol id="icon-arrow-sort" viewBox="0 0 32 32">
      <path d="M11.138 4.862c-0.26-0.26-0.682-0.26-0.943 0l-4.243 4.243c-0.26 0.26-0.26 0.682 0 0.943s0.682 0.26 0.943 0l3.771-3.771 3.771 3.771c0.26 0.26 0.683 0.26 0.943 0s0.26-0.682 0-0.943l-4.243-4.243zM10 5.333v21.333h1.333v-21.333h-1.333zM20.862 27.138c0.26 0.26 0.683 0.26 0.943 0l4.243-4.243c0.26-0.26 0.26-0.683 0-0.943s-0.682-0.26-0.943 0l-3.771 3.771-3.771-3.771c-0.26-0.26-0.683-0.26-0.943 0s-0.26 0.682 0 0.943l4.243 4.243zM20.667 5.333v21.333h1.333v-21.333h-1.333z"></path>
    </symbol>
    <symbol id="icon-star-food" viewBox="0 0 34 32">
      <path d="M17.067 0l3.832 11.793h12.4l-10.032 7.288 3.832 11.793-10.032-7.288-10.032 7.288 3.832-11.793-10.032-7.288h12.4l3.832-11.793z"></path>
    </symbol>
    <symbol id="icon-pgntr-left" viewBox="0 0 43 32">
      <path d="M25.106 23.078c0.195-0.194 0.292-0.425 0.292-0.691s-0.097-0.495-0.292-0.69l-5.697-5.697 5.717-5.717c0.181-0.181 0.272-0.408 0.272-0.681s-0.097-0.506-0.292-0.7c-0.194-0.194-0.425-0.292-0.691-0.292s-0.495 0.097-0.69 0.292l-6.533 6.553c-0.078 0.078-0.133 0.162-0.166 0.253s-0.048 0.188-0.048 0.292 0.016 0.201 0.048 0.292c0.033 0.091 0.088 0.175 0.166 0.253l6.553 6.553c0.181 0.181 0.405 0.272 0.67 0.272s0.496-0.097 0.691-0.292z"></path>
    </symbol>
    <symbol id="icon-pgntr-left-checkbox11" viewBox="0 0 43 32">
      <path d="M25.106 23.078c0.195-0.194 0.292-0.425 0.292-0.691s-0.097-0.495-0.292-0.69l-5.697-5.697 5.717-5.717c0.181-0.181 0.272-0.408 0.272-0.681s-0.097-0.506-0.292-0.7c-0.194-0.194-0.425-0.292-0.691-0.292s-0.495 0.097-0.69 0.292l-6.533 6.553c-0.078 0.078-0.133 0.162-0.166 0.253s-0.048 0.188-0.048 0.292 0.016 0.201 0.048 0.292c0.033 0.091 0.088 0.175 0.166 0.253l6.553 6.553c0.181 0.181 0.405 0.272 0.67 0.272s0.496-0.097 0.691-0.292z"></path>
    </symbol>
    <symbol id="icon-pgntr-left-material" viewBox="0 0 32 32">
      <path d="M22.469 28.133c0.307-0.295 0.498-0.709 0.498-1.168 0-0.006-0-0.011-0-0.017v0.001c0-0.004 0-0.009 0-0.013 0-0.459-0.192-0.874-0.5-1.168l-0.001-0.001-9.767-9.767 9.801-9.799c0.288-0.287 0.467-0.684 0.467-1.123 0-0.015-0-0.030-0.001-0.045l0 0.002c0-0.007 0-0.016 0-0.024 0-0.462-0.192-0.88-0.5-1.178l-0-0c-0.295-0.309-0.71-0.501-1.17-0.501-0.005 0-0.010 0-0.014 0h0.001c-0.004-0-0.009-0-0.013-0-0.46 0-0.875 0.193-1.168 0.502l-0.001 0.001-11.2 11.232c-0.123 0.119-0.219 0.264-0.281 0.426l-0.003 0.008c-0.054 0.147-0.085 0.317-0.085 0.494 0 0.001 0 0.003 0 0.004v-0c0 0.178 0.027 0.343 0.085 0.501 0.064 0.17 0.161 0.315 0.283 0.434l11.232 11.232c0.283 0.288 0.677 0.467 1.113 0.467 0.013 0 0.026-0 0.038-0l-0.002 0c0.457 0 0.85-0.167 1.184-0.501z"></path>
    </symbol>
  </defs>
</svg>
