<svg width="43" height="36" viewBox="0 0 43 36" fill="none" xmlns="http://www.w3.org/2000/svg">
<path d="M20.9067 20.8774C21.1506 25.0308 24.7507 25.5602 28.1069 29.0502C33.0723 34.0393 37.0674 32.5576 37.7461 28.959C38.3877 25.5016 34.8962 23.0342 34.6656 19.3385C34.435 15.6428 37.717 12.3013 36.7149 9.00037C35.7128 5.6994 31.5772 5.17506 27.1791 11.2389C24.2099 15.4227 20.7874 16.7581 20.9067 20.8774Z" fill="#FCB62A"/>
<path d="M13.398 10.6392C16.2091 12.551 19.5552 11.8687 20.7453 9.76387C21.9354 7.65909 20.4972 3.96868 17.651 2.1902C14.8399 0.278353 11.4937 0.960741 10.3036 3.06552C9.14857 5.03694 10.5868 8.72735 13.398 10.6392Z" fill="#FF9F0E"/>
<path d="M6.44751 21.2975C9.76275 21.4456 12.7786 19.5423 13.1492 16.7649C13.4826 14.1288 11.0971 11.8105 7.6701 11.6318C4.35486 11.4837 1.33903 13.387 0.968443 16.1645C0.635011 18.8006 3.13228 21.1494 6.44751 21.2975Z" fill="#FCB62A"/>
<path d="M8.02448 34.5513C11.0372 34.6062 14.0455 32.4452 14.4587 29.639C14.8342 26.9762 12.9043 23.9995 9.79067 23.9171C6.77793 23.8622 3.76961 26.0232 3.35645 28.8294C2.98096 31.4922 5.01174 34.4964 8.02448 34.5513Z" fill="#FFAA00"/>
</svg>
