<svg width="145" height="24" viewBox="0 0 145 24" fill="none" xmlns="http://www.w3.org/2000/svg">
<path d="M1.56476 23V5.496L0.924761 2.296L1.56476 0.344H12.4128C13.9274 0.344 15.3888 0.493333 16.7968 0.792C18.2261 1.06933 19.4954 1.60266 20.6048 2.392C21.7354 3.18133 22.6314 4.312 23.2928 5.784C23.9541 7.256 24.2848 9.16533 24.2848 11.512C24.2848 13.8587 23.9434 15.7893 23.2608 17.304C22.5994 18.7973 21.7034 19.96 20.5728 20.792C19.4421 21.624 18.1728 22.2 16.7648 22.52C15.3568 22.84 13.9061 23 12.4128 23H1.56476ZM8.66876 16.92H11.1008C12.3594 16.92 13.4154 16.7813 14.2688 16.504C15.1434 16.2267 15.8048 15.704 16.2528 14.936C16.7008 14.1467 16.9248 13.0053 16.9248 11.512C16.9248 9.99733 16.6901 8.888 16.2208 8.184C15.7728 7.45867 15.1114 6.98933 14.2368 6.776C13.3834 6.54133 12.3381 6.424 11.1008 6.424H8.66876V16.92ZM38.1753 23.32C36.8099 23.32 35.4446 23.16 34.0793 22.84C32.7353 22.4987 31.4979 21.9013 30.3673 21.048C29.2579 20.1947 28.3619 19.0107 27.6793 17.496C26.9966 15.9813 26.6553 14.04 26.6553 11.672C26.6553 9.304 26.9966 7.36267 27.6793 5.848C28.3619 4.33333 29.2579 3.14933 30.3673 2.296C31.4979 1.44267 32.7353 0.855999 34.0793 0.535999C35.4446 0.194665 36.8099 0.0239983 38.1753 0.0239983C39.5406 0.0239983 40.8953 0.194665 42.2393 0.535999C43.6046 0.877332 44.8419 1.47467 45.9513 2.328C47.0819 3.18133 47.9886 4.36533 48.6713 5.88C49.3539 7.39467 49.6953 9.32533 49.6953 11.672C49.6953 14.0187 49.3539 15.9493 48.6713 17.464C47.9886 18.9787 47.0819 20.1627 45.9513 21.016C44.8419 21.8693 43.6046 22.4667 42.2393 22.808C40.8953 23.1493 39.5406 23.32 38.1753 23.32ZM38.1753 16.92C39.5619 16.92 40.6073 16.504 41.3113 15.672C42.0153 14.8187 42.3673 13.4853 42.3673 11.672C42.3673 9.88 42.0153 8.55733 41.3113 7.704C40.6073 6.85067 39.5619 6.424 38.1753 6.424C35.4019 6.424 34.0153 8.17333 34.0153 11.672C34.0153 13.464 34.3566 14.7867 35.0393 15.64C35.7433 16.4933 36.7886 16.92 38.1753 16.92ZM64.674 23.32C62.818 23.32 61.1113 23.16 59.554 22.84C57.9967 22.4987 56.642 21.9013 55.49 21.048C54.338 20.1947 53.442 19.0107 52.802 17.496C52.1833 15.9813 51.874 14.04 51.874 11.672C51.874 9.32533 52.2047 7.39467 52.866 5.88C53.5273 4.36533 54.4233 3.18133 55.554 2.328C56.706 1.47467 58.0073 0.877332 59.458 0.535999C60.9087 0.194665 62.4233 0.0239983 64.002 0.0239983C65.0473 0.0239983 66.0073 0.0773315 66.882 0.183998C67.7567 0.290666 68.546 0.429333 69.25 0.599998L73.602 3.128L71.362 8.76L64.29 6.616C63.3727 6.616 62.53 6.76533 61.762 7.064C60.994 7.34133 60.3753 7.85333 59.906 8.6C59.458 9.32533 59.234 10.36 59.234 11.704C59.234 13.752 59.6713 15.192 60.546 16.024C61.442 16.8347 62.7007 17.24 64.322 17.24C64.9407 17.24 65.4527 17.208 65.858 17.144C66.2633 17.0587 66.6047 16.9627 66.882 16.856V15.096H64.098V10.04H74.274L74.626 11.96L73.922 15.256V21.976C73.6873 22.0613 73.154 22.2107 72.322 22.424C71.5113 22.6373 70.4553 22.84 69.154 23.032C67.8527 23.224 66.3593 23.32 64.674 23.32ZM84.992 23.24C83.888 23.24 82.816 23.112 81.776 22.856C80.752 22.6 79.832 22.152 79.016 21.512C78.2 20.872 77.552 19.984 77.072 18.848C76.592 17.712 76.352 16.264 76.352 14.504C76.352 12.92 76.584 11.576 77.048 10.472C77.512 9.352 78.144 8.448 78.944 7.76C79.744 7.072 80.664 6.568 81.704 6.248C82.744 5.928 83.84 5.768 84.992 5.768C85.808 5.768 86.6 5.832 87.368 5.96C88.152 6.088 88.72 6.232 89.072 6.392L91.976 8.816L89.576 12.776L84.992 10.664C84.448 10.664 83.936 10.816 83.456 11.12C82.992 11.408 82.608 11.84 82.304 12.416C82.016 12.976 81.872 13.672 81.872 14.504C81.872 15.56 82.032 16.376 82.352 16.952C82.688 17.512 83.16 17.896 83.768 18.104C84.392 18.312 85.128 18.416 85.976 18.416C86.792 18.416 87.56 18.336 88.28 18.176C89.016 18 89.664 17.8 90.224 17.576C90.784 17.352 91.208 17.16 91.496 17V21.8C91.176 21.96 90.72 22.16 90.128 22.4C89.552 22.624 88.832 22.824 87.968 23C87.12 23.16 86.128 23.24 84.992 23.24ZM94.6123 23L94.1323 21.56L94.6123 19.16V6.008H99.8923V15.152L99.6523 18.44H100.132L104.428 18.2L106.132 17.96L108.244 21.464L107.068 23H94.6123ZM116.882 23.24C114.082 23.24 112.066 22.68 110.834 21.56C109.602 20.424 108.986 18.608 108.986 16.112V9.872L109.01 7.448L108.986 6.008H114.362V14.912C114.362 15.648 114.418 16.304 114.53 16.88C114.642 17.44 114.882 17.88 115.25 18.2C115.618 18.52 116.178 18.68 116.93 18.68C117.698 18.68 118.266 18.536 118.634 18.248C119.002 17.96 119.242 17.536 119.354 16.976C119.466 16.416 119.522 15.728 119.522 14.912V6.008H124.778V16.112C124.778 17.744 124.514 19.088 123.986 20.144C123.458 21.184 122.618 21.96 121.466 22.472C120.314 22.984 118.786 23.24 116.882 23.24ZM127.894 23V9.848L127.414 7.448L127.894 6.008H137.014C138.822 6.008 140.27 6.36 141.358 7.064C142.446 7.768 142.99 8.84 142.99 10.28C142.99 11.064 142.846 11.712 142.558 12.224C142.286 12.72 141.934 13.144 141.502 13.496C142.046 13.624 142.558 13.864 143.038 14.216C143.518 14.552 143.91 15.008 144.214 15.584C144.518 16.144 144.67 16.84 144.67 17.672C144.67 19.352 144.174 20.664 143.182 21.608C142.206 22.536 140.63 23 138.454 23H127.894ZM133.174 12.608H136.006C136.55 12.608 136.942 12.528 137.182 12.368C137.422 12.192 137.542 11.928 137.542 11.576C137.542 11.208 137.366 10.952 137.014 10.808C136.662 10.648 136.246 10.568 135.766 10.568H133.174V12.608ZM133.174 18.44H137.254C137.894 18.44 138.342 18.344 138.598 18.152C138.854 17.944 138.982 17.672 138.982 17.336C138.982 16.568 138.486 16.184 137.494 16.184H133.174V18.44Z" fill="#FF9F0E"/>
</svg>
