<svg xmlns="http://www.w3.org/2000/svg" fill="none" viewBox="0 0 32 32">
  <path fill="#FF9F0E" d="M6.467 29.333v-12.8l-.367-.366a2.55 2.55 0 0 1-.567-.867 2.758 2.758 0 0 1-.2-1.033A2.628 2.628 0 0 1 6.1 12.4L10.467 8H15.8l5.333-5.333L23.867 5.4a9.739 9.739 0 0 1 2.066 3.016A8.879 8.879 0 0 1 26.667 12a8.879 8.879 0 0 1-.734 3.584 9.74 9.74 0 0 1-2.066 3.016l-2.734 2.733v8H6.467Zm2.666-2.666h9.334v-6.434l3.5-3.5a7.158 7.158 0 0 0 1.5-2.166c.355-.8.533-1.656.533-2.567 0-.889-.183-1.733-.55-2.533A7.737 7.737 0 0 0 21.966 7.3l-.834-.867-4.233 4.234h-5.333l-.767.766 2.233 2.234a6.746 6.746 0 0 1 1.451 2.149 6.47 6.47 0 0 1 .516 2.55c0 .89-.167 1.74-.5 2.551a6.634 6.634 0 0 1-1.467 2.183l-3.9-3.9v7.467Z"/>
</svg>
